<?xml version="1.0" standalone="no"?>
<!DOCTYPE svg PUBLIC "-//W3C//DTD SVG 1.1//EN" "http://www.w3.org/Graphics/SVG/1.1/DTD/svg11.dtd" >
<svg>
<metadata>
Created by FontForge 20090622 at Tue Jun 30 15:58:46 2015
 By deploy user
1970 Albert-Jan Pool, published by Fontshop International for the FontFont library.
</metadata>
<defs>
<font id="DIN-Medium" horiz-adv-x="533" >
  <font-face 
    font-family="DIN-Medium"
    font-weight="400"
    font-stretch="normal"
    units-per-em="1000"
    panose-1="2 0 6 3 4 0 0 2 0 4"
    ascent="760"
    descent="-240"
    x-height="507"
    cap-height="712"
    bbox="-110 -211 1138 1000"
    underline-thickness="70"
    underline-position="-102"
    unicode-range="U+0020-U+FB02"
  />
<missing-glyph horiz-adv-x="1000" 
 />
    <glyph glyph-name=".notdef" horiz-adv-x="1000" 
 />
    <glyph glyph-name="space" unicode=" " horiz-adv-x="240" 
 />
    <glyph glyph-name="exclam" unicode="!" horiz-adv-x="332" 
d="M127 0v109h112v-109h-112zM223 212h-80l-22 500h124z" />
    <glyph glyph-name="quotedbl" unicode="&#x22;" horiz-adv-x="444" 
d="M78 521v191h101v-191h-101zM265 521v191h101v-191h-101z" />
    <glyph glyph-name="numbersign" unicode="#" horiz-adv-x="672" 
d="M288 426l-20 -124h137l19 124h-136zM531 426l-20 -124h79v-94h-94l-33 -208h-106l33 208h-137l-32 -208h-107l33 208h-79v94h94l20 124h-81v94h95l31 196h107l-31 -196h136l31 196h106l-31 -196h78v-94h-92z" />
    <glyph glyph-name="dollar" unicode="$" horiz-adv-x="608" 
d="M267 622q-53 -5 -80.5 -35t-27.5 -74q0 -20 6.5 -36.5t20.5 -29.5q16 -14 37 -22t44 -11v208zM449 200q0 49 -28 74q-20 18 -42 22.5t-48 8.5v-212q56 5 87 32.5t31 74.5zM556 203q0 -45 -15.5 -81t-44 -62t-68.5 -42.5t-88 -20.5v-111h-82v108q-72 3 -126 24.5
t-102 69.5l72 71q36 -36 76.5 -51t88.5 -17v222l-26 3q-43 5 -77.5 21t-56.5 36q-53 50 -53 136t53.5 142t150.5 65v90h82v-89q60 -4 105 -23t86 -57l-69 -68q-26 25 -59.5 38t-71.5 16v-216l34 -5q50 -8 80 -20.5t53 -32.5q29 -26 43.5 -63t14.5 -83z" />
    <glyph glyph-name="percent" unicode="%" horiz-adv-x="842" 
d="M261 579q0 34 -15.5 53t-47.5 19t-47.5 -18.5t-15.5 -53.5v-95q0 -71 63 -71q32 0 47.5 18.5t15.5 52.5v95zM707 228q0 34 -15.5 53t-47.5 19t-47.5 -18.5t-15.5 -53.5v-95q0 -35 15.5 -53.5t47.5 -18.5t47.5 19t15.5 53v95zM294 0h-82l336 712h81zM338 481
q0 -32 -11 -57.5t-30 -43t-44.5 -26.5t-54.5 -9t-54.5 9t-44.5 26.5t-30 43t-11 57.5v101q0 32 11 57.5t30 43t44.5 27t54.5 9.5t54.5 -9.5t44.5 -27t30 -43t11 -57.5v-101v0zM784 130q0 -32 -11 -57.5t-30 -43t-44.5 -27t-54.5 -9.5t-54.5 9.5t-44.5 27t-30 43t-11 57.5
v101q0 32 11 57.5t30 43t44.5 27t54.5 9.5t54.5 -9.5t44.5 -27t30 -43t11 -57.5v-101v0z" />
    <glyph glyph-name="ampersand" unicode="&#x26;" horiz-adv-x="730" 
d="M380 558q0 30 -19.5 50.5t-51.5 20.5q-33 0 -51.5 -20t-18.5 -50q0 -22 14 -44t41 -54q5 3 13.5 9t14 9.5t6.5 4.5q21 14 36.5 31.5t15.5 42.5zM265 343q-20 -14 -37 -27.5t-30.5 -29t-21 -34.5t-7.5 -44q0 -54 36.5 -87.5t92.5 -33.5q36 0 68.5 11.5t67.5 43.5zM553 0
l-58 70q-12 -10 -29 -23t-41 -25t-55.5 -20t-71.5 -8q-112 0 -171 57.5t-59 154.5q0 37 12 66.5t32 53.5t45.5 44t51.5 37l-25 30.5t-24 35.5t-18 40.5t-7 46.5q0 34 12.5 63t35 50t54.5 33t72 12q38 0 69 -12t53.5 -33.5t34.5 -50.5t12 -63q0 -42 -21 -72.5t-55 -53.5
q-1 -1 -9.5 -6.5l-21.5 -14.5l-21 -15l150 -179q20 28 28.5 61t9.5 82h98q-2 -69 -18.5 -123t-52.5 -96l119 -142h-131z" />
    <glyph glyph-name="quotesingle" unicode="'" horiz-adv-x="257" 
d="M78 521v191h101v-191h-101z" />
    <glyph glyph-name="parenleft" unicode="(" horiz-adv-x="317" 
d="M190 -94l-45 46t-36 49q-16 28 -19.5 57t-3.5 59v478q0 30 3.5 59t19.5 57q15 27 36 49l45 46l69 -69l-31.5 -31.5t-24.5 -34.5q-15 -29 -15 -82v-466q0 -54 15 -82q11 -21 24.5 -34.5l31.5 -31.5z" />
    <glyph glyph-name="parenright" unicode=")" horiz-adv-x="317" 
d="M232 117q0 -30 -4 -59t-20 -57q-15 -27 -35.5 -49l-44.5 -46l-70 70l31 31.5t24 34.5q15 28 15 81v466q0 52 -15 81q-11 21 -24 34.5l-31 31.5l70 70l44.5 -46t35.5 -49q16 -28 20 -57t4 -59v-478v0z" />
    <glyph glyph-name="asterisk" unicode="*" horiz-adv-x="485" 
d="M387 401l-111 69l4 -131h-75l4 131l-111 -69l-37 65l115 61l-115 62l37 65l111 -69l-4 130h75l-4 -130l111 69l37 -65l-115 -62l115 -61z" />
    <glyph glyph-name="plus" unicode="+" 
d="M314 225v-168h-95v168h-168v95h168v167h95v-167h168v-95h-168z" />
    <glyph glyph-name="comma" unicode="," horiz-adv-x="272" 
d="M78 -155v271h116v-176z" />
    <glyph glyph-name="hyphen" unicode="-" horiz-adv-x="426" 
d="M67 230v95h292v-95h-292z" />
    <glyph glyph-name="hyphen" unicode="&#xad;" horiz-adv-x="426" 
d="M67 230v95h292v-95h-292z" />
    <glyph glyph-name="period" unicode="." horiz-adv-x="278" 
d="M78 0v122h122v-122h-122z" />
    <glyph glyph-name="slash" unicode="/" horiz-adv-x="380" 
d="M98 -74h-98l285 860h98z" />
    <glyph glyph-name="zero" unicode="0" 
d="M370 511q0 52 -27.5 84t-76.5 32t-76 -32t-27 -84v-310q0 -52 27 -84t76 -32t76.5 32t27.5 84v310zM472 198q0 -48 -16.5 -85.5t-44.5 -64t-65.5 -40.5t-79.5 -14t-79.5 14t-65.5 40.5t-44 64t-16 85.5v316q0 48 16 85.5t44 64t65.5 40.5t79.5 14t79.5 -14t65.5 -40.5
t44.5 -64t16.5 -85.5v-316v0z" />
    <glyph glyph-name="one" unicode="1" 
d="M253 0v601l-139 -122v113l139 120h102v-712h-102z" />
    <glyph glyph-name="two" unicode="2" 
d="M63 0v91l274 333q20 25 29 46.5t9 48.5q0 48 -27 78t-77 30q-20 0 -39 -6t-33.5 -19t-23.5 -34t-9 -51h-102q0 45 15.5 82.5t43 63.5t65.5 40.5t83 14.5q46 0 84 -14t65 -40t42 -63t15 -83q0 -47 -17 -80.5t-50 -73.5l-223 -273h290v-91h-414z" />
    <glyph glyph-name="three" unicode="3" 
d="M478 200q0 -51 -17.5 -90t-47 -65t-69 -39t-84.5 -13q-43 0 -81.5 11.5t-68.5 36t-48.5 62.5t-19.5 90h102q1 -29 11.5 -49t26 -33.5t36 -19.5t42.5 -6q50 0 83 30.5t33 87.5q0 54 -29.5 85.5t-89.5 31.5h-17v89h17q56 0 82 29.5t26 78.5q0 54 -30.5 82t-74.5 28
q-47 0 -75 -27t-32 -75h-102q2 45 19 81t45 61t65 38.5t80 13.5q45 0 83 -14.5t65.5 -41t43 -63t15.5 -80.5q0 -57 -23.5 -94.5t-65.5 -57.5q46 -20 73 -61t27 -107z" />
    <glyph glyph-name="four" unicode="4" 
d="M422 107v-107h-99v107h-288v95l251 510h110l-250 -510h177v166h99v-166h76v-95h-76z" />
    <glyph glyph-name="five" unicode="5" 
d="M479 238q0 -57 -10.5 -103.5t-49.5 -85.5q-24 -24 -61 -40t-89 -16q-51 0 -90 16t-62 39q-29 29 -40 63.5t-14 72.5h102q6 -48 31 -73.5t73 -25.5q46 0 74 28q23 23 28.5 56t5.5 69q0 32 -4.5 59t-16.5 47t-32 31.5t-51 11.5q-44 0 -68.5 -19t-32.5 -45h-93v389h384v-91
h-292v-188q18 19 48.5 30t69.5 11q42 0 74 -12t54 -34q20 -20 32.5 -43t19 -47t8.5 -49.5t2 -50.5z" />
    <glyph glyph-name="six" unicode="6" 
d="M375 209q0 53 -29 88t-80 35q-48 0 -78 -32.5t-30 -90.5q0 -57 30 -90.5t78 -33.5t78.5 33.5t30.5 90.5zM477 211q0 -49 -15.5 -89t-43.5 -68.5t-66.5 -44t-84.5 -15.5t-85 14.5t-67 42.5t-43.5 67t-15.5 89q0 44 15 86t38 89l162 330h109l-153 -306q14 6 30 8.5t33 2.5
q39 0 73 -14.5t59.5 -41.5t40 -65t14.5 -85z" />
    <glyph glyph-name="seven" unicode="7" 
d="M249 0h-110l239 621h-217v-112h-98v203h424v-91z" />
    <glyph glyph-name="eight" unicode="8" 
d="M372 518q0 47 -29.5 78t-76.5 31t-76 -31t-29 -78q0 -48 29 -78t76 -30t76.5 30t29.5 78zM383 203q0 25 -9 46.5t-25 37.5t-37 25.5t-46 9.5t-46.5 -9.5t-37 -25.5t-24.5 -37.5t-9 -46.5t9 -46.5t24.5 -37.5t37 -25t46.5 -9t46 9t37 25t25 37.5t9 46.5zM486 201
q0 -48 -17 -86.5t-47 -65.5t-70 -41t-86 -14t-86 14t-69.5 41t-46.5 65.5t-17 86.5q0 32 8.5 58t22 46.5t31 36t36.5 26.5q-35 21 -60.5 58.5t-25.5 94.5q0 45 16 81t44 62t65.5 40t81.5 14q43 0 81 -14t66.5 -40t44.5 -62t16 -81q0 -57 -25.5 -94.5t-60.5 -58.5
q19 -11 36.5 -26.5t31 -36t22 -46.5t8.5 -58z" />
    <glyph glyph-name="nine" unicode="9" 
d="M375 503q0 57 -30.5 90.5t-78.5 33.5t-78 -33.5t-30 -90.5q0 -53 28.5 -88t79.5 -35q48 0 78.5 32.5t30.5 90.5zM477 505q0 -44 -15 -86t-38 -89l-162 -330h-109l153 306q-14 -6 -30.5 -8.5t-33.5 -2.5q-39 0 -72.5 14.5t-59 41.5t-40 65t-14.5 85q0 49 15.5 89
t43.5 68.5t66.5 44t84.5 15.5t85 -14.5t67 -42.5t43.5 -67.5t15.5 -88.5z" />
    <glyph glyph-name="colon" unicode=":" horiz-adv-x="303" 
d="M104 0v122h121v-122h-121zM104 285v122h121v-122h-121z" />
    <glyph glyph-name="semicolon" unicode=";" horiz-adv-x="303" 
d="M104 285v122h121v-122h-121zM106 -155v271h116v-176z" />
    <glyph glyph-name="semicolon" unicode="&#x37e;" horiz-adv-x="303" 
d="M104 285v122h121v-122h-121zM106 -155v271h116v-176z" />
    <glyph glyph-name="less" unicode="&#x3c;" 
d="M82 232v91l369 177v-108l-245 -115l245 -114v-108z" />
    <glyph glyph-name="equal" unicode="=" 
d="M51 133v95h431v-95h-431zM51 327v95h431v-95h-431z" />
    <glyph glyph-name="greater" unicode="&#x3e;" 
d="M82 55v108l245 114l-245 115v108l369 -177v-91z" />
    <glyph glyph-name="question" unicode="?" horiz-adv-x="511" 
d="M219 0v109h113v-109h-113zM470 527q0 -36 -14 -65.5t-34 -57.5l-77 -108q-8 -11 -13 -26.5t-5 -27.5v-30h-102v35q0 31 8 53t26 46l78 105q14 18 22.5 36.5t8.5 39.5q0 42 -27 71t-71 29q-47 0 -72 -30t-25 -71h-102q0 42 15 77.5t42 61t63.5 39.5t78.5 14
q41 0 77.5 -13.5t63.5 -38t43 -60t16 -79.5z" />
    <glyph glyph-name="at" unicode="@" horiz-adv-x="736" 
d="M574 234q0 32 -4 60.5t-15.5 49.5t-31.5 33t-51 12q-32 0 -51.5 -12t-30.5 -33t-15 -49.5t-4 -60.5t4 -60t15 -49t30.5 -33t51.5 -12q31 0 51 12t31.5 33t15.5 49t4 60zM576 0v50q-24 -29 -53.5 -43t-73.5 -14q-41 0 -74.5 15t-56.5 41q-14 16 -23 34.5t-14 40.5t-6.5 49
t-1.5 61q0 66 8 109t35 75q22 26 56 41.5t76 15.5t72 -14t54 -42v61q0 35 -8 60.5t-29 47.5q-20 20 -47 28.5t-59 8.5h-126q-32 0 -58 -8t-47 -29q-23 -23 -30 -47.5t-7 -60.5v-312q0 -21 2.5 -36.5t8 -28t15 -23t24.5 -22.5l-70 -70q-22 18 -37 35t-24.5 37t-13.5 45t-4 58
v318q0 57 13.5 100t45.5 75t74.5 45.5t97.5 13.5h146q54 0 96.5 -13.5t74.5 -45.5t46 -75t14 -100v-483z" />
    <glyph glyph-name="A" unicode="A" horiz-adv-x="625" 
d="M315 551l-111 -316h219zM502 0l-49 143h-281l-49 -143h-115l261 712h87l261 -712h-115z" />
    <glyph glyph-name="B" unicode="B" horiz-adv-x="663" 
d="M477 513q0 50 -32 76t-84 26h-160v-204h160q52 0 84 26t32 76zM488 206q0 48 -30 78t-87 30h-170v-217h170q57 0 87 30.5t30 78.5zM596 201q0 -49 -16 -86.5t-44.5 -63t-68 -38.5t-86.5 -13h-288v712h277q100 0 157.5 -52t57.5 -143q0 -29 -8.5 -53.5t-22 -44t-30.5 -33
t-35 -20.5q21 -8 40 -22.5t34 -34.5t24 -47t9 -61z" />
    <glyph glyph-name="C" unicode="C" horiz-adv-x="628" 
d="M577 213q-9 -53 -31.5 -94t-56 -69t-76 -42t-90.5 -14q-56 0 -103 19.5t-84 56.5q-26 26 -40 55t-20.5 63t-7.5 75.5t-1 92.5t1 92.5t7.5 75.5t20.5 63t40 55q37 37 84 56.5t103 19.5q99 0 167 -56t87 -163h-110q-13 54 -48.5 88t-95.5 34q-32 0 -59 -11.5t-46 -31.5
q-13 -14 -21.5 -30.5t-13 -41t-6.5 -60.5t-2 -90t2 -90t6.5 -60.5t13 -41t21.5 -30.5q19 -20 46 -31.5t59 -11.5q60 0 96 34t49 88h109v0z" />
    <glyph glyph-name="D" unicode="D" horiz-adv-x="666" 
d="M491 361q0 74 -5 124.5t-33 81.5q-44 48 -121 48h-131v-518h131q77 0 121 48q28 31 33 86.5t5 129.5zM599 361q0 -39 -0.5 -79t-6.5 -78t-21 -73t-44 -64q-34 -34 -81 -50.5t-103 -16.5h-250v712h250q56 0 103 -16.5t81 -50.5q29 -29 44 -62.5t21 -70t6.5 -74.5t0.5 -77z
" />
    <glyph glyph-name="E" unicode="E" horiz-adv-x="603" 
d="M93 0v712h455v-97h-347v-208h296v-96h-296v-214h347v-97h-455z" />
    <glyph glyph-name="F" unicode="F" horiz-adv-x="585" 
d="M201 615v-217h296v-97h-296v-301h-108v712h455v-97h-347z" />
    <glyph glyph-name="G" unicode="G" horiz-adv-x="649" 
d="M583 276q0 -69 -14.5 -116t-49.5 -85q-41 -43 -90 -62t-106 -19q-56 0 -103 19.5t-84 56.5q-26 26 -40 55t-20.5 63t-7.5 75.5t-1 92.5t1 92.5t7.5 75.5t20.5 63t40 55q37 37 83.5 56.5t103.5 19.5t101.5 -17.5t77 -47.5t52.5 -70t28 -86h-109q-14 59 -52 91.5t-98 32.5
q-32 0 -59 -12t-46 -32q-13 -14 -21.5 -30.5t-13 -41t-6.5 -60t-2 -89.5t2 -90t6.5 -60.5t13 -41t21.5 -30.5q19 -20 46 -31.5t59 -11.5q35 0 65 13t51 37q20 23 28 50t8 62v40h-152v92h260v-109v0z" />
    <glyph glyph-name="H" unicode="H" horiz-adv-x="691" 
d="M490 0v311h-289v-311h-108v712h108v-304h289v304h108v-712h-108z" />
    <glyph glyph-name="I" unicode="I" horiz-adv-x="294" 
d="M93 0v712h108v-712h-108z" />
    <glyph glyph-name="J" unicode="J" horiz-adv-x="506" 
d="M423 225q0 -56 -18.5 -99t-51 -72t-75.5 -44.5t-92 -15.5q-55 0 -95.5 16t-77.5 53l72 71q19 -19 40.5 -31t60.5 -12q60 0 94.5 36t34.5 106v479h108v-487v0z" />
    <glyph glyph-name="K" unicode="K" horiz-adv-x="658" 
d="M521 0l-200 351l-120 -144v-207h-108v712h108v-358l291 358h132l-231 -279l255 -433h-127z" />
    <glyph glyph-name="L" unicode="L" horiz-adv-x="574" 
d="M93 0v712h108v-615h343v-97h-451z" />
    <glyph glyph-name="M" unicode="M" horiz-adv-x="813" 
d="M613 0v476l-164 -347h-80l-168 347v-476h-108v712h108l208 -443l204 443h108v-712h-108z" />
    <glyph glyph-name="N" unicode="N" horiz-adv-x="722" 
d="M530 0l-329 501v-501h-108v712h99l329 -500v500h108v-712h-99z" />
    <glyph glyph-name="O" unicode="O" horiz-adv-x="646" 
d="M471 356q0 54 -1.5 89.5t-6 60t-13 41t-21.5 30.5q-19 20 -46.5 32t-59.5 12t-59.5 -12t-46.5 -32q-13 -14 -21.5 -30.5t-13 -41t-6 -60t-1.5 -89.5t1.5 -89.5t6 -60t13 -41t21.5 -30.5q19 -20 46.5 -32t59.5 -12t59.5 12t46.5 32q13 14 21.5 30.5t13 41t6 60t1.5 89.5z
M579 356q0 -51 -1 -92.5t-7 -75.5t-20 -63t-40 -55q-37 -37 -84 -56.5t-104 -19.5t-103.5 19.5t-83.5 56.5q-26 26 -40 55t-20.5 63t-7.5 75.5t-1 92.5t1 92.5t7.5 75.5t20.5 63t40 55q37 37 83.5 56.5t103.5 19.5t104 -19.5t84 -56.5q26 -26 40 -55t20 -63t7 -75.5t1 -92.5
z" />
    <glyph glyph-name="P" unicode="P" horiz-adv-x="629" 
d="M483 496q0 57 -34.5 88t-91.5 31h-156v-237h156q57 0 91.5 30.5t34.5 87.5zM591 496q0 -47 -16 -86.5t-46 -68t-72 -45t-94 -16.5h-162v-280h-108v712h270q52 0 94 -16.5t72 -45t46 -68.5t16 -86z" />
    <glyph glyph-name="Q" unicode="Q" horiz-adv-x="646" 
d="M471 356q0 54 -1.5 89.5t-6 60t-13 41t-21.5 30.5q-19 20 -46.5 32t-59.5 12t-59.5 -12t-46.5 -32q-13 -14 -21.5 -30.5t-13 -41t-6 -60t-1.5 -89.5t1.5 -89.5t6 -60t13 -41t21.5 -30.5q19 -20 46.5 -32t59.5 -12q41 0 73 23l-75 75l60 60l69 -69q14 27 17.5 67t3.5 109z
M543 -32l-71 71q-31 -22 -69 -33.5t-80 -11.5q-57 0 -103.5 19.5t-83.5 56.5q-26 26 -40 55t-20.5 63t-7.5 75.5t-1 92.5t1 92.5t7.5 75.5t20.5 63t40 55q37 37 83.5 56.5t103.5 19.5t104 -19.5t84 -56.5q26 -26 40 -55t20 -63t7 -75.5t1 -92.5q0 -45 -0.5 -82.5t-5 -68.5
t-13.5 -57.5t-27 -50.5l70 -69z" />
    <glyph glyph-name="R" unicode="R" horiz-adv-x="655" 
d="M482 503q0 53 -33.5 82.5t-87.5 29.5h-160v-223h160q54 0 87.5 29t33.5 82zM486 0l-150 300h-135v-300h-108v712h276q51 0 91.5 -15.5t69.5 -43t44.5 -66t15.5 -83.5q0 -77 -41 -124.5t-101 -64.5l164 -315h-126z" />
    <glyph glyph-name="S" unicode="S" horiz-adv-x="590" 
d="M538 203q0 -49 -19 -88t-53 -66t-81 -41t-103 -14q-81 0 -141 21t-111 73l72 71q39 -39 83 -53.5t99 -14.5q70 0 108.5 28.5t38.5 80.5q0 49 -28 74q-14 13 -30 19t-48 11l-84 12q-87 12 -135 57q-52 49 -52 136q0 46 16.5 84.5t47 66.5t74.5 43t100 15q71 0 123 -19
t98 -62l-69 -68q-33 32 -71.5 43.5t-83.5 11.5q-63 0 -96.5 -31.5t-33.5 -79.5q0 -20 6.5 -36.5t20.5 -29.5q28 -25 80 -33l81 -12q50 -8 80 -20.5t53 -32.5q29 -26 43.5 -63t14.5 -83z" />
    <glyph glyph-name="T" unicode="T" horiz-adv-x="560" 
d="M334 615v-615h-108v615h-196v97h500v-97h-196z" />
    <glyph glyph-name="U" unicode="U" horiz-adv-x="675" 
d="M593 240q0 -55 -19.5 -100.5t-54 -77.5t-81.5 -50t-101 -18t-101 18t-81 50t-53.5 77.5t-19.5 100.5v472h108v-467q0 -72 40 -113t107 -41t107.5 41t40.5 113v467h108v-472v0z" />
    <glyph glyph-name="V" unicode="V" horiz-adv-x="564" 
d="M323 0h-84l-234 712h112l164 -518l164 518h114z" />
    <glyph glyph-name="W" unicode="W" horiz-adv-x="871" 
d="M674 0h-94l-145 499l-144 -499h-94l-186 712h114l124 -509l143 509h87l143 -509l124 509h114z" />
    <glyph glyph-name="X" unicode="X" horiz-adv-x="578" 
d="M443 0l-155 273l-154 -273h-124l220 365l-206 347h124l140 -255l141 255h124l-206 -347l221 -365h-125z" />
    <glyph glyph-name="Y" unicode="Y" horiz-adv-x="544" 
d="M326 293v-293h-108v293l-213 419h118l149 -313l149 313h118z" />
    <glyph glyph-name="Z" unicode="Z" horiz-adv-x="552" 
d="M48 0v93l329 522h-315v97h442v-88l-331 -527h331v-97h-456z" />
    <glyph glyph-name="bracketleft" unicode="[" horiz-adv-x="347" 
d="M86 -74v860h218v-91h-116v-678h116v-91h-218z" />
    <glyph glyph-name="backslash" unicode="\" horiz-adv-x="380" 
d="M282 -74l-282 852h98l282 -852h-98z" />
    <glyph glyph-name="bracketright" unicode="]" horiz-adv-x="347" 
d="M43 -74v90h118v680h-118v90h218v-860h-218z" />
    <glyph glyph-name="asciicircum" unicode="^" horiz-adv-x="571" 
d="M397 401l-112 207l-112 -207h-106l172 318h93l171 -318h-106z" />
    <glyph glyph-name="underscore" unicode="_" horiz-adv-x="571" 
d="M0 -172v70h571v-70h-571z" />
    <glyph glyph-name="grave" unicode="`" horiz-adv-x="500" 
d="M225 599l-111 162h113l75 -162h-77z" />
    <glyph glyph-name="a" unicode="a" horiz-adv-x="530" 
d="M352 224h-119q-45 0 -68 -19t-23 -54t22.5 -53.5t70.5 -18.5q29 0 52 4.5t43 24.5q22 22 22 75v41zM354 0v46q-28 -28 -58 -40t-77 -12q-48 0 -80.5 11.5t-55.5 34.5q-40 42 -40 109q0 64 43.5 105t131.5 41h134v36q0 48 -25.5 71.5t-85.5 23.5q-42 0 -66 -11t-45 -38
l-67 63q36 42 77.5 57.5t104.5 15.5q209 0 209 -174v-339h-100z" />
    <glyph glyph-name="b" unicode="b" horiz-adv-x="553" 
d="M394 254q0 34 -3.5 64.5t-14.5 53.5t-32 36.5t-55 13.5q-35 0 -55.5 -13.5t-32 -36.5t-15 -53.5t-3.5 -64.5t3.5 -64.5t15 -54t32 -37t55.5 -13.5q34 0 55 13.5t32 37t14.5 54t3.5 64.5zM496 254q0 -29 -1.5 -59t-7.5 -58.5t-17.5 -53.5t-30.5 -44q-21 -21 -53.5 -33
t-70.5 -12q-42 0 -73.5 12.5t-60.5 47.5v-54h-100v712h102v-256q28 33 60 45t73 12q38 0 70 -12t53 -33q19 -19 30.5 -44t17.5 -53t7.5 -58t1.5 -59z" />
    <glyph glyph-name="c" unicode="c" horiz-adv-x="485" 
d="M448 66q-36 -38 -75 -55t-92 -17q-43 0 -83.5 14t-72 45t-51 80.5t-19.5 120.5t19.5 120.5t51 80t72 44.5t83.5 14q53 0 92 -16.5t75 -54.5l-70 -68q-24 26 -45.5 37t-51.5 11q-60 0 -94 -45q-17 -21 -23.5 -49.5t-6.5 -73.5t6.5 -74t23.5 -50q34 -45 94 -45
q30 0 51.5 11t45.5 37l70 -67v0z" />
    <glyph glyph-name="d" unicode="d" horiz-adv-x="553" 
d="M370 254q0 34 -3.5 64.5t-14.5 53.5t-32 36.5t-55 13.5q-35 0 -55.5 -13.5t-32 -36.5t-15 -53.5t-3.5 -64.5t3.5 -64.5t15 -54t32 -37t55.5 -13.5q34 0 55 13.5t32 37t14.5 54t3.5 64.5zM372 0v54q-29 -35 -60.5 -47.5t-73.5 -12.5q-38 0 -70.5 12t-53.5 33
q-19 19 -30.5 44t-17.5 53.5t-7.5 58.5t-1.5 59t1.5 59t7.5 58t17.5 53t30.5 44q21 21 53 33t70 12q41 0 73 -12t60 -45v256h102v-712h-100z" />
    <glyph glyph-name="e" unicode="e" horiz-adv-x="539" 
d="M384 295q-1 23 -3.5 37.5t-10.5 31.5q-12 29 -38 46.5t-62 17.5t-62.5 -17.5t-38.5 -46.5q-8 -17 -10 -31.5t-3 -37.5h228v0zM156 224q0 -66 33 -104t96 -38q43 0 69.5 12.5t53.5 39.5l65 -61q-20 -20 -39.5 -34.5t-42 -24.5t-49 -15t-59.5 -5q-48 0 -89.5 13.5t-72 44
t-48.5 80.5t-18 122q0 124 58.5 191.5t156.5 67.5q51 0 91 -18t67.5 -50t42 -77t14.5 -99v-45h-329z" />
    <glyph glyph-name="f" unicode="f" horiz-adv-x="328" 
d="M199 420v-420h-102v420h-58v78h58v78q0 27 8.5 52.5t25.5 45t43 31.5t62 12h64v-87h-45q-29 0 -42.5 -15.5t-13.5 -43.5v-73h101v-78h-101z" />
    <glyph glyph-name="g" unicode="g" horiz-adv-x="549" 
d="M366 263q0 30 -3 58.5t-14 51t-31.5 36t-54.5 13.5q-35 0 -55.5 -13.5t-31 -36t-14 -51t-3.5 -58.5t3.5 -58.5t14 -51t31 -36t55.5 -13.5q34 0 54.5 13.5t31.5 36t14 51t3 58.5zM468 3q0 -47 -15 -86t-43 -67.5t-68 -44.5t-91 -16q-58 0 -98.5 15t-80.5 52l65 65
q24 -23 48 -34t62 -11q32 0 54.5 10.5t37 28.5t21 41t6.5 49v65q-28 -33 -60 -45.5t-71 -12.5q-38 0 -69 12t-52 33q-37 37 -47 89t-10 117t10 117t47 89q44 44 122 44q41 0 72.5 -12.5t60.5 -47.5v54h99v-504v0z" />
    <glyph glyph-name="h" unicode="h" horiz-adv-x="566" 
d="M388 0v311q0 58 -29.5 84.5t-72.5 26.5t-73 -27t-30 -84v-311h-102v712h102v-256q26 29 59.5 43t71.5 14q42 0 75 -13.5t55.5 -38t34 -59t11.5 -75.5v-327h-102z" />
    <glyph glyph-name="i" unicode="i" horiz-adv-x="264" 
d="M78 607v108h108v-108h-108zM81 0v507h102v-507h-102z" />
    <glyph glyph-name="j" unicode="j" horiz-adv-x="264" 
d="M78 607v108h108v-108h-108zM183 -67q0 -28 -8 -53.5t-25 -44.5t-43.5 -30.5t-62.5 -11.5h-63v87h45q31 0 43 15t12 44v568h102v-574v0z" />
    <glyph glyph-name="k" unicode="k" horiz-adv-x="548" 
d="M400 0l-142 234l-75 -85v-149h-102v712h102v-439l197 234h124l-176 -199l198 -308h-126z" />
    <glyph glyph-name="l" unicode="l" horiz-adv-x="311" 
d="M217 0q-36 0 -62.5 11.5t-43.5 30.5t-25 44.5t-8 53.5v572h102v-566q0 -29 12 -44t43 -15h45v-87h-63z" />
    <glyph glyph-name="m" unicode="m" horiz-adv-x="877" 
d="M699 0v309q0 59 -29.5 86t-72.5 27q-21 0 -40 -6.5t-33.5 -20t-23 -34t-8.5 -47.5v-314h-102v309q0 59 -29.5 86t-72.5 27t-74 -27.5t-31 -85.5v-309h-102v507h100v-51q26 28 61.5 42.5t73.5 14.5q96 0 144 -74q61 74 159 74q39 0 72 -12t56 -34q29 -29 41.5 -64.5
t12.5 -78.5v-324h-102z" />
    <glyph glyph-name="n" unicode="n" horiz-adv-x="568" 
d="M390 0v309q0 59 -29.5 86t-72.5 27t-74 -27.5t-31 -85.5v-309h-102v507h100v-51q26 29 61.5 43t73.5 14q39 0 70.5 -12t54.5 -34q29 -29 40 -64.5t11 -78.5v-324h-102z" />
    <glyph glyph-name="o" unicode="o" horiz-adv-x="537" 
d="M378 254q0 42 -6 79t-29 60q-29 29 -75 29q-45 0 -74 -29q-23 -23 -29 -60t-6 -79t6 -79t29 -60q30 -30 74 -30q45 0 75 30q23 23 29 60t6 79zM480 254q0 -65 -12 -113.5t-48 -86.5q-25 -26 -62.5 -43t-89.5 -17t-89 17t-62 43q-36 38 -48 86.5t-12 113.5q0 64 12 112.5
t48 86.5q25 26 62 43t89 17t89.5 -17t62.5 -43q36 -38 48 -86.5t12 -112.5z" />
    <glyph glyph-name="p" unicode="p" horiz-adv-x="553" 
d="M394 254q0 34 -3.5 64.5t-14.5 53.5t-32 36.5t-55 13.5q-35 0 -55.5 -13.5t-32 -36.5t-15 -53.5t-3.5 -64.5t3.5 -64.5t15 -54t32 -37t55.5 -13.5q34 0 55 13.5t32 37t14.5 54t3.5 64.5zM496 254q0 -29 -1.5 -59t-7.5 -58.5t-17.5 -53.5t-30.5 -44q-21 -21 -53 -33
t-70 -12q-41 0 -73 12.5t-60 45.5v-257h-102v712h100v-54q29 35 60.5 47.5t73.5 12.5q38 0 70.5 -12t53.5 -33q19 -19 30.5 -44t17.5 -53t7.5 -58t1.5 -59z" />
    <glyph glyph-name="q" unicode="q" horiz-adv-x="553" 
d="M370 254q0 34 -3.5 64.5t-14.5 53.5t-32 36.5t-55 13.5q-35 0 -55.5 -13.5t-32 -36.5t-15 -53.5t-3.5 -64.5t3.5 -64.5t15 -54t32 -37t55.5 -13.5q34 0 55 13.5t32 37t14.5 54t3.5 64.5zM370 -205v257q-28 -33 -60 -45.5t-73 -12.5q-38 0 -70 12t-53 33q-19 19 -30.5 44
t-17.5 53.5t-7.5 58.5t-1.5 59t1.5 59t7.5 58t17.5 53t30.5 44q21 21 53.5 33t70.5 12q42 0 73.5 -12.5t60.5 -47.5v54h100v-712h-102z" />
    <glyph glyph-name="r" unicode="r" horiz-adv-x="439" 
d="M360 388q-17 17 -33.5 25.5t-42.5 8.5q-42 0 -71.5 -30.5t-29.5 -83.5v-308h-102v507h100v-55q20 27 56 44t79 17q37 0 66 -11t55 -37z" />
    <glyph glyph-name="s" unicode="s" horiz-adv-x="499" 
d="M456 155q0 -40 -16 -70t-44 -50.5t-67 -30.5t-84 -10q-62 0 -115 14.5t-98 58.5l67 67q31 -32 69.5 -42.5t76.5 -10.5q47 0 79 17t32 53q0 26 -15.5 41.5t-52.5 18.5l-81 7q-72 6 -111 39.5t-39 100.5q0 37 15 66t41 48.5t60.5 30t74.5 10.5q57 0 105 -13t83 -44l-64 -65
q-24 20 -56.5 28.5t-68.5 8.5q-46 0 -69 -18t-23 -47q0 -23 14.5 -38.5t55.5 -19.5l80 -7q72 -6 111.5 -40.5t39.5 -102.5z" />
    <glyph glyph-name="t" unicode="t" horiz-adv-x="342" 
d="M232 0q-36 0 -62 12t-43 31.5t-25.5 45t-8.5 52.5v279h-58v78h58v154h102v-154h98v-78h-98v-274q0 -28 13.5 -43.5t42.5 -15.5h42v-87h-61z" />
    <glyph glyph-name="u" unicode="u" horiz-adv-x="568" 
d="M387 0v51q-26 -29 -61.5 -43t-73.5 -14q-39 0 -70.5 12t-54.5 34q-29 29 -40 64.5t-11 78.5v324h102v-309q0 -59 29.5 -86t72.5 -27q21 0 40.5 6.5t33.5 20.5t22.5 35.5t8.5 50.5v309h102v-507h-100z" />
    <glyph glyph-name="v" unicode="v" horiz-adv-x="471" 
d="M277 0h-83l-186 507h108l120 -357l119 357h108z" />
    <glyph glyph-name="w" unicode="w" horiz-adv-x="743" 
d="M577 0h-87l-119 354l-118 -354h-88l-157 507h108l98 -357l118 357h79l117 -357l98 357h109z" />
    <glyph glyph-name="x" unicode="x" horiz-adv-x="503" 
d="M358 0l-106 173l-107 -173h-123l174 259l-167 248h123l100 -165l99 165h123l-166 -248l173 -259h-123z" />
    <glyph glyph-name="y" unicode="y" horiz-adv-x="468" 
d="M240 -101q-14 -40 -37 -63q-21 -21 -48 -29t-56 -8h-41v92h26q32 0 47 11.5t26 42.5l28 79l-177 483h108l121 -357l118 357h109z" />
    <glyph glyph-name="z" unicode="z" horiz-adv-x="469" 
d="M43 0v81l252 335h-238v91h364v-81l-254 -335h254v-91h-378z" />
    <glyph glyph-name="braceleft" unicode="{" horiz-adv-x="407" 
d="M291 -74q-38 0 -64 8.5t-43 25.5q-20 20 -28 44.5t-8 60.5v167q0 42 -18 60q-8 8 -19.5 13.5t-28.5 5.5h-37v90h37q17 0 28.5 5.5t19.5 13.5q18 18 18 60v167q0 36 8 60.5t28 44.5q17 17 43 25.5t64 8.5h71v-91h-39q-24 0 -37 -3t-21 -11t-11.5 -23t-3.5 -41v-161
q0 -24 -6 -41t-15 -28t-21 -18.5t-24 -12.5q12 -5 24 -12.5t21 -18.5t15 -28t6 -41v-161q0 -26 3.5 -41t11.5 -23t21 -11t37 -3h39v-91h-71z" />
    <glyph glyph-name="bar" unicode="|" horiz-adv-x="338" 
d="M118 -74v860h102v-860h-102z" />
    <glyph glyph-name="braceright" unicode="}" horiz-adv-x="407" 
d="M326 311q-17 0 -29 -5.5t-20 -13.5q-18 -18 -18 -60v-167q0 -36 -8 -60.5t-28 -44.5q-17 -17 -43 -25.5t-64 -8.5h-71v91h39q24 0 37 3t21 11t11.5 23t3.5 41v161q0 24 6 41t15.5 28t21.5 18.5t24 12.5q-12 5 -24 12.5t-21.5 18.5t-15.5 28t-6 41v161q0 26 -3.5 41
t-11.5 23t-21 11t-37 3h-39v91h71q38 0 64 -8.5t43 -25.5q20 -20 28 -44.5t8 -60.5v-167q0 -42 18 -60q8 -8 20 -13.5t29 -5.5h36v-90h-36z" />
    <glyph glyph-name="asciitilde" unicode="~" horiz-adv-x="574" 
d="M531 280q-22 -22 -40.5 -37t-36 -24t-34.5 -13t-37 -4q-29 0 -55 9t-57 24q-21 11 -39.5 17.5t-39.5 6.5t-39 -8t-46 -36l-64 64q22 22 40.5 37t35.5 24t34 13t37 4q29 0 54.5 -9t56.5 -24q21 -11 40 -17.5t40 -6.5q10 0 19.5 1.5t19 6t21 13.5t25.5 23l65 -64v0z" />
    <glyph glyph-name="Euro" horiz-adv-x="681" 
d="M621 213q-9 -53 -32 -94t-56.5 -68.5t-76 -42t-90.5 -14.5q-56 0 -102.5 19.5t-83.5 56.5q-36 36 -49 78t-17 100h-71v67h68v86h-68v67h71q4 56 17.5 97.5t48.5 76.5q37 37 83.5 56.5t102.5 19.5q49 0 91.5 -14.5t76 -42t56 -68.5t31.5 -94h-110q-13 54 -49 88.5
t-96 34.5q-32 0 -58.5 -12t-46.5 -32q-19 -20 -27 -43.5t-11 -66.5h183v-67h-187v-86h187v-67h-183q3 -45 11 -69.5t27 -44.5q20 -20 46.5 -32t58.5 -12q60 0 96.5 34.5t49.5 88.5h109v0z" />
    <glyph glyph-name="Euro" unicode="&#x20ac;" horiz-adv-x="681" 
d="M621 213q-9 -53 -32 -94t-56.5 -68.5t-76 -42t-90.5 -14.5q-56 0 -102.5 19.5t-83.5 56.5q-36 36 -49 78t-17 100h-71v67h68v86h-68v67h71q4 56 17.5 97.5t48.5 76.5q37 37 83.5 56.5t102.5 19.5q49 0 91.5 -14.5t76 -42t56 -68.5t31.5 -94h-110q-13 54 -49 88.5
t-96 34.5q-32 0 -58.5 -12t-46.5 -32q-19 -20 -27 -43.5t-11 -66.5h183v-67h-187v-86h187v-67h-183q3 -45 11 -69.5t27 -44.5q20 -20 46.5 -32t58.5 -12q60 0 96.5 34.5t49.5 88.5h109v0z" />
    <glyph glyph-name="quotesinglbase" unicode="&#x201a;" horiz-adv-x="267" 
d="M78 -92v197h112v-105z" />
    <glyph glyph-name="florin" unicode="&#x192;" horiz-adv-x="415" 
d="M326 630q-29 0 -45 -15.5t-21 -43.5l-32 -180h101v-78h-115l-91 -518h-102l91 518h-82v78h96l33 185q5 27 17.5 52.5t33 45t48.5 31.5t64 12h63v-87h-59z" />
    <glyph glyph-name="quotedblbase" unicode="&#x201e;" horiz-adv-x="460" 
d="M78 -92v197h112v-105zM269 -92v197h112v-105z" />
    <glyph glyph-name="ellipsis" unicode="&#x2026;" horiz-adv-x="803" 
d="M343 0v117h117v-117h-117zM78 0v117h117v-117h-117zM608 0v117h117v-117h-117z" />
    <glyph glyph-name="dagger" unicode="&#x2020;" horiz-adv-x="591" 
d="M346 427v-427h-102v427h-179v91h179v194h102v-194h180v-91h-180z" />
    <glyph glyph-name="daggerdbl" unicode="&#x2021;" horiz-adv-x="591" 
d="M346 -11v-194h-102v194h-179v92h179v346h-179v91h179v194h102v-194h180v-91h-180v-346h180v-92h-180z" />
    <glyph glyph-name="circumflex" unicode="&#x2c6;" horiz-adv-x="500" 
d="M337 599l-87 97l-87 -97h-85l129 161h86l129 -161h-85z" />
    <glyph glyph-name="perthousand" unicode="&#x2030;" horiz-adv-x="1196" 
d="M261 579q0 34 -15.5 53t-47.5 19t-47.5 -18.5t-15.5 -53.5v-95q0 -71 63 -71q32 0 47.5 18.5t15.5 52.5v95zM1061 228q0 34 -15.5 53t-47.5 19t-47.5 -18.5t-15.5 -53.5v-95q0 -35 15.5 -53.5t47.5 -18.5t47.5 19t15.5 53v95zM707 228q0 34 -15.5 53t-47.5 19
t-47.5 -18.5t-15.5 -53.5v-95q0 -35 15.5 -53.5t47.5 -18.5t47.5 19t15.5 53v95zM294 0h-82l336 712h81zM338 481q0 -32 -11 -57.5t-30 -43t-44.5 -26.5t-54.5 -9t-54.5 9t-44.5 26.5t-30 43t-11 57.5v101q0 32 11 57.5t30 43t44.5 27t54.5 9.5t54.5 -9.5t44.5 -27t30 -43
t11 -57.5v-101v0zM1138 130q0 -32 -11 -57.5t-30 -43t-44.5 -27t-54.5 -9.5t-54.5 9.5t-44.5 27t-30 43t-11 57.5v101q0 32 11 57.5t30 43t44.5 27t54.5 9.5t54.5 -9.5t44.5 -27t30 -43t11 -57.5v-101v0zM784 130q0 -32 -11 -57.5t-30 -43t-44.5 -27t-54.5 -9.5t-54.5 9.5
t-44.5 27t-30 43t-11 57.5v101q0 32 11 57.5t30 43t44.5 27t54.5 9.5t54.5 -9.5t44.5 -27t30 -43t11 -57.5v-101v0z" />
    <glyph glyph-name="Scaron" unicode="&#x160;" horiz-adv-x="590" 
d="M335 781h-86l-129 161h85l87 -97l87 97h85zM538 203q0 -49 -19 -88t-53 -66t-81 -41t-103 -14q-81 0 -141 21t-111 73l72 71q39 -39 83 -53.5t99 -14.5q70 0 108.5 28.5t38.5 80.5q0 49 -28 74q-14 13 -30 19t-48 11l-84 12q-87 12 -135 57q-52 49 -52 136
q0 46 16.5 84.5t47 66.5t74.5 43t100 15q71 0 123 -19t98 -62l-69 -68q-33 32 -71.5 43.5t-83.5 11.5q-63 0 -96.5 -31.5t-33.5 -79.5q0 -20 6.5 -36.5t20.5 -29.5q28 -25 80 -33l81 -12q50 -8 80 -20.5t53 -32.5q29 -26 43.5 -63t14.5 -83z" />
    <glyph glyph-name="guilsinglleft" unicode="&#x2039;" horiz-adv-x="339" 
d="M37 272l230 229v-123l-107 -106l107 -107v-123z" />
    <glyph glyph-name="OE" unicode="&#x152;" horiz-adv-x="977" 
d="M471 356q0 54 -1.5 89.5t-6 60t-13 41t-21.5 30.5q-19 20 -46.5 32t-59.5 12t-59 -12t-46 -32q-13 -14 -21.5 -30.5t-13 -41t-6 -60t-1.5 -89.5t1.5 -89.5t6 -60t13 -41t21.5 -30.5q19 -20 46 -32t59 -12t59.5 12t46.5 32q13 14 21.5 30.5t13 41t6 60t1.5 89.5zM471 0v58
q-29 -34 -69.5 -49t-80.5 -15q-57 0 -102.5 18.5t-82.5 55.5q-26 26 -40 55t-20.5 63.5t-7.5 76.5t-1 93t1 93t7.5 76.5t20.5 63.5t40 55q37 37 82.5 55.5t102.5 18.5q43 0 82 -15t68 -49v58h450v-96h-342v-210h291v-94h-291v-216h343v-96h-451z" />
    <glyph glyph-name="Zcaron" horiz-adv-x="552" 
d="M324 781h-86l-129 161h85l87 -97l87 97h85zM48 0v93l329 522h-315v97h442v-88l-331 -527h331v-97h-456z" />
    <glyph glyph-name="Zcaron" unicode="&#x17d;" horiz-adv-x="552" 
d="M324 781h-86l-129 161h85l87 -97l87 97h85zM48 0v93l329 522h-315v97h442v-88l-331 -527h331v-97h-456z" />
    <glyph glyph-name="quoteleft" unicode="&#x2018;" horiz-adv-x="268" 
d="M78 608v104l112 93v-197h-112z" />
    <glyph glyph-name="quoteright" unicode="&#x2019;" horiz-adv-x="268" 
d="M78 516v196h112v-105z" />
    <glyph glyph-name="quotedblleft" unicode="&#x201c;" horiz-adv-x="459" 
d="M78 608v104l112 93v-197h-112zM269 608v104l112 93v-197h-112z" />
    <glyph glyph-name="quotedblright" unicode="&#x201d;" horiz-adv-x="459" 
d="M78 516v196h112v-105zM269 516v196h112v-105z" />
    <glyph glyph-name="bullet" unicode="&#x2022;" horiz-adv-x="512" 
d="M419 334q0 -34 -13 -63.5t-35 -51.5t-51.5 -35t-63.5 -13t-63.5 13t-51.5 35t-35 51.5t-13 63.5t13 63.5t35 51.5t51.5 35t63.5 13t63.5 -13t51.5 -35t35 -51.5t13 -63.5z" />
    <glyph glyph-name="endash" unicode="&#x2013;" 
d="M51 230v95h431v-95h-431z" />
    <glyph glyph-name="emdash" unicode="&#x2014;" horiz-adv-x="972" 
d="M67 231v97h838v-97h-838z" />
    <glyph glyph-name="tilde" unicode="&#x2dc;" horiz-adv-x="500" 
d="M419 667q-34 -34 -57.5 -44.5t-46.5 -10.5q-22 0 -38.5 6t-36.5 17q-14 8 -27.5 13.5t-28.5 5.5q-13 0 -25 -4.5t-33 -25.5l-48 47q34 34 57 44.5t47 10.5q22 0 38.5 -6t36.5 -18q15 -9 27.5 -14t27.5 -5q12 0 25.5 5.5t33.5 25.5l48 -47v0z" />
    <glyph glyph-name="trademark" unicode="&#x2122;" horiz-adv-x="883" 
d="M231 643v-358h-76v358h-114v69h305v-69h-115zM745 285v279l-90 -179h-71l-90 179v-279h-77v427h77l125 -243l126 243h77v-427h-77z" />
    <glyph glyph-name="scaron" unicode="&#x161;" horiz-adv-x="499" 
d="M291 599h-86l-129 161h85l87 -97l87 97h85zM456 155q0 -40 -16 -70t-44 -50.5t-67 -30.5t-84 -10q-62 0 -115 14.5t-98 58.5l67 67q31 -32 69.5 -42.5t76.5 -10.5q47 0 79 17t32 53q0 26 -15.5 41.5t-52.5 18.5l-81 7q-72 6 -111 39.5t-39 100.5q0 37 15 66t41 48.5
t60.5 30t74.5 10.5q57 0 105 -13t83 -44l-64 -65q-24 20 -56.5 28.5t-68.5 8.5q-46 0 -69 -18t-23 -47q0 -23 14.5 -38.5t55.5 -19.5l80 -7q72 -6 111.5 -40.5t39.5 -102.5z" />
    <glyph glyph-name="guilsinglright" unicode="&#x203a;" horiz-adv-x="339" 
d="M72 42v123l108 107l-108 106v123l231 -229z" />
    <glyph glyph-name="oe" unicode="&#x153;" horiz-adv-x="862" 
d="M706 295q-1 23 -3 37.5t-10 31.5q-12 29 -38.5 46.5t-62.5 17.5t-62 -17.5t-38 -46.5q-8 -17 -10.5 -31.5t-3.5 -37.5h228v0zM378 254q0 42 -6 79t-29 60q-29 29 -75 29q-45 0 -74 -29q-23 -23 -29 -60t-6 -79t6 -79t29 -60q30 -30 74 -30q45 0 75 30q23 23 29 60t6 79z
M478 224q0 -66 33 -104t96 -38q43 0 69.5 12.5t53.5 39.5l65 -61q-20 -20 -39 -34.5t-41.5 -24.5t-49 -15t-59.5 -5q-56 0 -101 19t-74 61q-24 -37 -66 -58.5t-97 -21.5q-52 0 -89 17t-62 43q-36 38 -48 86.5t-12 113.5q0 64 12 112.5t48 86.5q25 26 62 43t89 17
q56 0 98 -21.5t66 -59.5q53 81 160 81q51 0 91 -18t67.5 -50t42 -77t14.5 -99v-45h-329z" />
    <glyph glyph-name="zcaron" horiz-adv-x="469" 
d="M282 599h-86l-129 161h85l87 -97l87 97h85zM43 0v81l252 335h-238v91h364v-81l-254 -335h254v-91h-378z" />
    <glyph glyph-name="zcaron" unicode="&#x17e;" horiz-adv-x="469" 
d="M282 599h-86l-129 161h85l87 -97l87 97h85zM43 0v81l252 335h-238v91h364v-81l-254 -335h254v-91h-378z" />
    <glyph glyph-name="Ydieresis" unicode="&#x178;" horiz-adv-x="544" 
d="M334 786v108h92v-108h-92zM118 786v108h92v-108h-92zM326 293v-293h-108v293l-213 419h118l149 -313l149 313h118z" />
    <glyph glyph-name="nonbreakingspace" unicode="&#xa0;" horiz-adv-x="240" 
 />
    <glyph glyph-name="exclamdown" unicode="&#xa1;" horiz-adv-x="332" 
d="M93 398v109h112v-109h-112zM87 -205l22 500h80l22 -500h-124z" />
    <glyph glyph-name="cent" unicode="&#xa2;" horiz-adv-x="498" 
d="M247 528q-34 -7 -58 -39q-16 -22 -24 -50t-8 -73q0 -44 7.5 -72.5t23.5 -50.5q24 -32 59 -39v324zM459 184q-32 -34 -65 -51.5t-76 -22.5v-110h-80v111q-40 7 -73.5 26.5t-58 52t-38 76.5t-13.5 100t13.5 100t38 76.5t58 52t73.5 26.5v91h80v-90q43 -5 76 -22.5t65 -51.5
l-68 -66q-20 22 -38.5 33t-43.5 15v-328q25 4 43.5 15t38.5 33l68 -66v0z" />
    <glyph glyph-name="sterling" unicode="&#xa3;" horiz-adv-x="564" 
d="M105 0v313h-62v78h62v96q0 55 19 98.5t51 72.5t75.5 44.5t92.5 15.5q55 0 95.5 -16t77.5 -53l-72 -71q-19 19 -40.5 31t-60.5 12q-60 0 -94.5 -36t-34.5 -106v-88h129v-78h-129v-216h302v-97h-411z" />
    <glyph glyph-name="currency" unicode="&#xa4;" horiz-adv-x="665" 
d="M468 279q0 28 -10.5 52.5t-29 43t-43.5 29t-53 10.5t-53 -10.5t-43.5 -29t-29 -43t-10.5 -52.5t10.5 -53t29 -43.5t43.5 -29t53 -10.5t53 10.5t43.5 29t29 43.5t10.5 53zM530 14l-74 74q-26 -18 -57.5 -28t-66.5 -10t-66.5 10t-57.5 28l-73 -74l-67 67l73 74
q-18 26 -28 57.5t-10 66.5t10 66.5t28 57.5l-73 73l67 67l73 -73q54 37 124 37t124 -37l74 73l67 -67l-74 -73q18 -26 28 -57.5t10 -66.5t-10 -66.5t-28 -57.5l74 -74z" />
    <glyph glyph-name="yen" unicode="&#xa5;" horiz-adv-x="544" 
d="M392 422h87v-78h-127l-26 -51v-52h153v-78h-153v-163h-108v163h-153v78h153v52l-26 51h-127v78h87l-147 290h118l150 -314l148 314h117z" />
    <glyph glyph-name="brokenbar" unicode="&#xa6;" horiz-adv-x="344" 
d="M118 -74v350h102v-350h-102zM118 436v350h102v-350h-102z" />
    <glyph glyph-name="section" unicode="&#xa7;" horiz-adv-x="543" 
d="M372 261q0 52 -29 80q-14 13 -30.5 20.5t-39.5 7.5q-45 0 -71 -28q-14 -14 -21 -32.5t-7 -47.5t8 -47.5t20 -31.5q26 -28 71 -28q44 0 70 28q12 13 20.5 31t8.5 48zM472 264q0 -29 -9 -54t-23 -44.5t-31 -34t-34 -23.5q38 -17 63 -50.5t25 -90.5q0 -43 -15.5 -76
t-42 -55.5t-61 -34.5t-72.5 -12q-37 0 -71 10t-61 31t-44 53t-18 76h100q3 -37 27.5 -58t66.5 -21q43 0 67 22.5t24 61.5q0 27 -18 51t-60 37l-70 21q-69 21 -105 66t-36 120q0 29 8.5 54t22.5 44.5t31.5 34t34.5 23.5q-37 18 -60.5 48.5t-23.5 85.5q0 35 12.5 65.5
t36.5 53.5t58.5 36.5t78.5 13.5t78.5 -12.5t58.5 -34t37 -52t14 -66.5h-98q-3 41 -27.5 58.5t-62.5 17.5q-42 0 -65 -20t-23 -57q0 -31 20 -50.5t55 -30.5l70 -21q69 -21 105.5 -66.5t36.5 -119.5z" />
    <glyph glyph-name="dieresis" unicode="&#xa8;" horiz-adv-x="500" 
d="M96 604v108h92v-108h-92zM312 604v108h92v-108h-92z" />
    <glyph glyph-name="copyright" unicode="&#xa9;" horiz-adv-x="862" 
d="M568 208q-29 -26 -59 -39t-72 -13q-41 0 -74 14t-56 40t-36 63t-13 83t13 83t36 63t56 40t74 14q42 0 72 -13t59 -39l-46 -47q-23 20 -41 27.5t-44 7.5q-57 0 -82.5 -38.5t-25.5 -97.5t25.5 -97.5t82.5 -38.5q26 0 44 7.5t41 27.5l46 -47v0zM720 356q0 62 -22.5 115.5
t-61.5 93.5t-92 62.5t-113 22.5t-113 -22.5t-92 -62.5t-61.5 -93.5t-22.5 -115.5t22.5 -115.5t61.5 -93.5t92 -62.5t113 -22.5t113 22.5t92 62.5t61.5 93.5t22.5 115.5zM793 356q0 -75 -28.5 -141t-77.5 -115t-115 -77.5t-141 -28.5t-141 28.5t-115 77.5t-77.5 115
t-28.5 141t28.5 141t77.5 115t115 77.5t141 28.5t141 -28.5t115 -77.5t77.5 -115t28.5 -141z" />
    <glyph glyph-name="ordfeminine" unicode="&#xaa;" horiz-adv-x="452" 
d="M296 485h-93q-35 0 -52.5 -15t-17.5 -42t16.5 -41t54.5 -14q23 0 41.5 3.5t33.5 18.5q17 16 17 58v32zM298 307v36q-22 -22 -45.5 -31t-60.5 -9q-38 0 -63.5 8.5t-44.5 27.5q-16 16 -24 38.5t-8 48.5q0 51 35 84t104 33h105v28q0 38 -20 56t-67 18q-33 0 -51.5 -8.5
t-35.5 -30.5l-55 52q29 34 62 46t84 12q166 0 166 -139v-270h-81z" />
    <glyph glyph-name="guillemotleft" unicode="&#xab;" horiz-adv-x="592" 
d="M290 272l230 229v-123l-108 -106l108 -107v-123zM37 272l230 229v-123l-107 -106l107 -107v-123z" />
    <glyph glyph-name="logicalnot" unicode="&#xac;" 
d="M389 98v141h-341v95h436v-236h-95z" />
    <glyph glyph-name="registered" unicode="&#xae;" horiz-adv-x="862" 
d="M507 432q0 25 -17.5 42t-46.5 17h-66v-118h66q29 0 46.5 17t17.5 42zM507 161l-80 155h-50v-155h-72v391h147q28 0 51 -9.5t39.5 -26t26 -38.5t9.5 -46q0 -42 -22.5 -68.5t-54.5 -37.5l87 -165h-81zM720 356q0 62 -22.5 116t-61.5 93.5t-91.5 62.5t-113.5 23t-114 -23
t-92 -62.5t-61.5 -93.5t-22.5 -116t22.5 -116t61.5 -93.5t92 -62.5t114 -23t113.5 23t91.5 62.5t61.5 93.5t22.5 116zM793 356q0 -75 -28.5 -141t-77.5 -115t-115 -77.5t-141 -28.5t-141 28.5t-115 77.5t-77.5 115t-28.5 141t28.5 141t77.5 115t115 77.5t141 28.5t141 -28.5
t115 -77.5t77.5 -115t28.5 -141z" />
    <glyph glyph-name="macron" unicode="&#xaf;" horiz-adv-x="500" 
d="M95 622v73h310v-73h-310z" />
    <glyph glyph-name="macron" unicode="&#x2c9;" horiz-adv-x="500" 
d="M95 622v73h310v-73h-310z" />
    <glyph glyph-name="degree" unicode="&#xb0;" horiz-adv-x="471" 
d="M326 549q0 19 -7 36t-19.5 30t-29 20t-35.5 7q-38 0 -64 -27t-26 -66t26 -65.5t64 -26.5t64.5 26.5t26.5 65.5zM410 549q0 -36 -14 -67.5t-37.5 -55.5t-55.5 -37.5t-68 -13.5t-67.5 13.5t-55.5 37.5t-37.5 55.5t-13.5 67.5t13.5 68t37.5 55.5t55.5 37.5t67.5 14t68 -14
t55.5 -37.5t37.5 -55.5t14 -68z" />
    <glyph glyph-name="plusminus" unicode="&#xb1;" 
d="M51 0v95h431v-95h-431zM314 316v-169h-95v169h-168v95h168v168h95v-168h168v-95h-168z" />
    <glyph glyph-name="twosuperior" unicode="&#xb2;" horiz-adv-x="350" 
d="M45 285v69l161 186q12 14 17 25.5t5 26.5q0 25 -13.5 40t-39.5 15q-20 0 -36.5 -11.5t-16.5 -43.5h-77q0 58 37 91t93 33q57 0 93.5 -33t36.5 -91q0 -31 -12 -51.5t-34 -46.5l-121 -140h167v-69h-260z" />
    <glyph glyph-name="threesuperior" unicode="&#xb3;" horiz-adv-x="362" 
d="M317 408q0 -32 -11 -56t-29.5 -40t-43 -24t-51.5 -8q-26 0 -50.5 7t-43.5 22.5t-31 39.5t-12 57h77q1 -29 19 -43t41 -14q26 0 42 16t16 45q0 27 -15.5 43.5t-45.5 16.5h-11v66h11q29 0 42.5 16t13.5 39q0 28 -16 42t-38 14q-23 0 -37.5 -13.5t-16.5 -38.5h-76
q2 57 39 89t91 32q28 0 52 -9t41 -25t27 -38.5t10 -49.5q0 -35 -14 -56.5t-36 -32.5q23 -12 39.5 -35t16.5 -62z" />
    <glyph glyph-name="acute" unicode="&#xb4;" horiz-adv-x="500" 
d="M275 599h-77l75 162h113z" />
    <glyph glyph-name="mu" unicode="&#xb5;" horiz-adv-x="569" 
d="M387 0v51q-26 -29 -61 -43t-73 -14q-45 0 -75 25v-224h-102v712h102v-309q0 -59 30 -86t73 -27t73.5 27t30.5 86v309h102v-507h-100z" />
    <glyph glyph-name="mu" unicode="&#x3bc;" horiz-adv-x="569" 
d="M387 0v51q-26 -29 -61 -43t-73 -14q-45 0 -75 25v-224h-102v712h102v-309q0 -59 30 -86t73 -27t73.5 27t30.5 86v309h102v-507h-100z" />
    <glyph glyph-name="paragraph" unicode="&#xb6;" horiz-adv-x="637" 
d="M442 -205v820h-108v-820h-102v522q-41 0 -76.5 16t-61.5 43t-41 62.5t-15 74.5q0 45 16 81.5t45 62.5t71 40.5t93 14.5h281v-917h-102z" />
    <glyph glyph-name="periodcentered" unicode="&#xb7;" horiz-adv-x="278" 
d="M78 217v122h122v-122h-122z" />
    <glyph glyph-name="periodcentered" unicode="&#x22c5;" horiz-adv-x="278" 
d="M78 217v122h122v-122h-122z" />
    <glyph glyph-name="periodcentered" unicode="&#x2219;" horiz-adv-x="278" 
d="M78 217v122h122v-122h-122z" />
    <glyph glyph-name="cedilla" unicode="&#xb8;" horiz-adv-x="500" 
d="M268 -211h-101l70 147h82z" />
    <glyph glyph-name="onesuperior" unicode="&#xb9;" horiz-adv-x="277" 
d="M127 285v341l-87 -76v87l87 75h77v-427h-77z" />
    <glyph glyph-name="ordmasculine" unicode="&#xba;" horiz-adv-x="458" 
d="M314 510q0 32 -3.5 61t-22.5 48q-23 23 -59 23q-35 0 -58 -23q-19 -19 -23 -48t-4 -61t4 -61.5t23 -48.5q23 -23 58 -23q36 0 59 23q19 19 22.5 48.5t3.5 61.5zM398 510q0 -52 -9.5 -90.5t-38.5 -68.5q-20 -20 -49.5 -34t-71.5 -14t-71 14t-49 34q-29 30 -38.5 68.5
t-9.5 90.5q0 51 9.5 89.5t38.5 68.5q20 20 49 34t71 14t71.5 -14t49.5 -34q29 -30 38.5 -68.5t9.5 -89.5z" />
    <glyph glyph-name="guillemotright" unicode="&#xbb;" horiz-adv-x="592" 
d="M72 42v123l108 107l-108 106v123l231 -229zM325 42v123l107 107l-107 106v123l231 -229z" />
    <glyph glyph-name="onequarter" unicode="&#xbc;" horiz-adv-x="808" 
d="M127 285v341l-87 -76v87l87 75h77v-427h-77zM728 61v-61h-74v61h-174v71l147 295h83l-147 -295h91v83h74v-83h40v-71h-40zM261 0h-81l335 712h81z" />
    <glyph glyph-name="onehalf" unicode="&#xbd;" horiz-adv-x="827" 
d="M127 285v341l-87 -76v87l87 75h77v-427h-77zM253 0h-81l335 712h81zM523 0v69l160 186q12 14 17 25.5t5 26.5q0 25 -13.5 40t-39.5 15q-20 0 -36.5 -11.5t-16.5 -43.5h-76q0 58 36.5 91t92.5 33q57 0 93.5 -33t36.5 -91q0 -31 -12 -51.5t-34 -46.5l-121 -140h167v-69
h-259z" />
    <glyph glyph-name="threequarters" unicode="&#xbe;" horiz-adv-x="844" 
d="M764 61v-61h-73v61h-174v71l146 295h84l-147 -295h91v83h73v-83h40v-71h-40zM303 0h-81l335 712h81zM317 408q0 -32 -11 -56t-29.5 -40t-43 -24t-51.5 -8q-26 0 -50.5 7t-43.5 22.5t-31 39.5t-12 57h77q1 -29 19 -43t41 -14q26 0 42 16t16 45q0 27 -15.5 43.5t-45.5 16.5
h-11v66h11q29 0 42.5 16t13.5 39q0 28 -16 42t-38 14q-23 0 -37.5 -13.5t-16.5 -38.5h-76q2 57 39 89t91 32q28 0 52 -9t41 -25t27 -38.5t10 -49.5q0 -35 -14 -56.5t-36 -32.5q23 -12 39.5 -35t16.5 -62z" />
    <glyph glyph-name="questiondown" unicode="&#xbf;" horiz-adv-x="511" 
d="M179 398v109h112v-109h-112zM440 -19q0 -42 -15.5 -77.5t-42.5 -61t-63.5 -39.5t-78.5 -14q-41 0 -77 13.5t-63 38.5t-43 60.5t-16 79.5q0 36 13.5 65.5t33.5 57.5l78 108q8 11 13 26.5t5 27.5v30h102v-36q0 -31 -8.5 -53t-26.5 -46l-77 -105q-14 -18 -22.5 -36.5
t-8.5 -39.5q0 -42 26.5 -70.5t70.5 -28.5q47 0 72.5 29.5t25.5 70.5h102v0z" />
    <glyph glyph-name="Agrave" unicode="&#xc0;" horiz-adv-x="625" 
d="M284 781l-111 162h113l75 -162h-77zM315 551l-111 -316h219zM502 0l-49 143h-281l-49 -143h-115l261 712h87l261 -712h-115z" />
    <glyph glyph-name="Aacute" unicode="&#xc1;" horiz-adv-x="625" 
d="M335 781h-77l75 162h113zM315 551l-111 -316h219zM502 0l-49 143h-281l-49 -143h-115l261 712h87l261 -712h-115z" />
    <glyph glyph-name="Acircumflex" unicode="&#xc2;" horiz-adv-x="625" 
d="M397 781l-87 97l-87 -97h-85l129 161h86l129 -161h-85zM315 551l-111 -316h219zM502 0l-49 143h-281l-49 -143h-115l261 712h87l261 -712h-115z" />
    <glyph glyph-name="Atilde" unicode="&#xc3;" horiz-adv-x="625" 
d="M478 849q-34 -34 -57.5 -44.5t-46.5 -10.5q-22 0 -38.5 6t-36.5 17q-14 8 -27.5 13.5t-28.5 5.5q-13 0 -25 -4.5t-33 -25.5l-48 47q34 34 57 44.5t47 10.5q22 0 38.5 -6t36.5 -18q15 -9 27.5 -14t27.5 -5q12 0 25.5 5.5t33.5 25.5l48 -47v0zM315 551l-111 -316h219z
M502 0l-49 143h-281l-49 -143h-115l261 712h87l261 -712h-115z" />
    <glyph glyph-name="Adieresis" unicode="&#xc4;" horiz-adv-x="625" 
d="M156 786v108h92v-108h-92zM372 786v108h92v-108h-92zM315 551l-111 -316h219zM502 0l-49 143h-281l-49 -143h-115l261 712h87l261 -712h-115z" />
    <glyph glyph-name="Aring" unicode="&#xc5;" horiz-adv-x="625" 
d="M374 875q0 26 -19 44.5t-45 18.5t-45 -18.5t-19 -44.5t19 -44.5t45 -18.5t45 18.5t19 44.5zM315 551l-111 -316h219zM435 875q0 -26 -10 -48.5t-27 -39.5t-39.5 -27t-48.5 -10t-48.5 10t-39.5 27t-27 39.5t-10 48.5t10 48.5t27 39.5t39.5 27t48.5 10t48.5 -10t39.5 -27
t27 -39.5t10 -48.5zM502 0l-49 143h-281l-49 -143h-115l261 712h87l261 -712h-115z" />
    <glyph glyph-name="AE" unicode="&#xc6;" horiz-adv-x="952" 
d="M442 615l-188 -361h188v361zM442 0v162h-235l-84 -162h-118l374 712h518v-97h-347v-209h296v-97h-296v-212h347v-97h-455z" />
    <glyph glyph-name="Ccedilla" unicode="&#xc7;" horiz-adv-x="628" 
d="M323 -211h-101l70 147h82zM577 213q-9 -53 -31.5 -94t-56 -69t-76 -42t-90.5 -14q-56 0 -103 19.5t-84 56.5q-26 26 -40 55t-20.5 63t-7.5 75.5t-1 92.5t1 92.5t7.5 75.5t20.5 63t40 55q37 37 84 56.5t103 19.5q99 0 167 -56t87 -163h-110q-13 54 -48.5 88t-95.5 34
q-32 0 -59 -11.5t-46 -31.5q-13 -14 -21.5 -30.5t-13 -41t-6.5 -60.5t-2 -90t2 -90t6.5 -60.5t13 -41t21.5 -30.5q19 -20 46 -31.5t59 -11.5q60 0 96 34t49 88h109v0z" />
    <glyph glyph-name="Egrave" unicode="&#xc8;" horiz-adv-x="603" 
d="M286 781l-111 162h113l75 -162h-77zM93 0v712h455v-97h-347v-208h296v-96h-296v-214h347v-97h-455z" />
    <glyph glyph-name="Eacute" unicode="&#xc9;" horiz-adv-x="603" 
d="M336 781h-77l75 162h113zM93 0v712h455v-97h-347v-208h296v-96h-296v-214h347v-97h-455z" />
    <glyph glyph-name="Ecircumflex" unicode="&#xca;" horiz-adv-x="603" 
d="M398 781l-87 97l-87 -97h-85l129 161h86l129 -161h-85zM93 0v712h455v-97h-347v-208h296v-96h-296v-214h347v-97h-455z" />
    <glyph glyph-name="Edieresis" unicode="&#xcb;" horiz-adv-x="603" 
d="M373 786v108h92v-108h-92zM157 786v108h92v-108h-92zM93 0v712h455v-97h-347v-208h296v-96h-296v-214h347v-97h-455z" />
    <glyph glyph-name="Igrave" unicode="&#xcc;" horiz-adv-x="294" 
d="M109 781l-111 162h113l75 -162h-77zM93 0v712h108v-712h-108z" />
    <glyph glyph-name="Iacute" unicode="&#xcd;" horiz-adv-x="294" 
d="M170 781h-77l75 162h113zM93 0v712h108v-712h-108z" />
    <glyph glyph-name="Icircumflex" unicode="&#xce;" horiz-adv-x="294" 
d="M235 781l-87 97l-87 -97h-85l129 161h86l129 -161h-85zM93 0v712h108v-712h-108z" />
    <glyph glyph-name="Idieresis" unicode="&#xcf;" horiz-adv-x="294" 
d="M212 786v108h92v-108h-92zM-4 786v108h92v-108h-92zM93 0v712h108v-712h-108z" />
    <glyph glyph-name="Eth" unicode="&#xd0;" horiz-adv-x="684" 
d="M509 353q0 48 -1 80.5t-4 54.5t-9.5 37t-16.5 29q-23 32 -53.5 47t-75.5 15h-129v-215h138v-83h-138v-222h129q90 0 133 63q9 13 14.5 26.5t8 34t3.5 52t1 81.5zM617 356q0 -55 -1 -93.5t-6.5 -68t-16.5 -53t-30 -47.5q-34 -42 -85 -68t-119 -26h-247v318h-74v83h74v311
h250q127 0 201 -95q20 -26 31 -50.5t16 -54t6 -67t1 -89.5z" />
    <glyph glyph-name="Ntilde" unicode="&#xd1;" horiz-adv-x="722" 
d="M530 849q-34 -34 -57.5 -44.5t-46.5 -10.5q-22 0 -38.5 6t-36.5 17q-14 8 -27.5 13.5t-28.5 5.5q-13 0 -25 -4.5t-33 -25.5l-48 47q34 34 57 44.5t47 10.5q22 0 38.5 -6t36.5 -18q15 -9 27.5 -14t27.5 -5q12 0 25.5 5.5t33.5 25.5l48 -47v0zM530 0l-329 501v-501h-108
v712h99l329 -500v500h108v-712h-99z" />
    <glyph glyph-name="Ograve" unicode="&#xd2;" horiz-adv-x="646" 
d="M298 781l-111 162h113l75 -162h-77zM471 356q0 54 -1.5 89.5t-6 60t-13 41t-21.5 30.5q-19 20 -46.5 32t-59.5 12t-59.5 -12t-46.5 -32q-13 -14 -21.5 -30.5t-13 -41t-6 -60t-1.5 -89.5t1.5 -89.5t6 -60t13 -41t21.5 -30.5q19 -20 46.5 -32t59.5 -12t59.5 12t46.5 32
q13 14 21.5 30.5t13 41t6 60t1.5 89.5zM579 356q0 -51 -1 -92.5t-7 -75.5t-20 -63t-40 -55q-37 -37 -84 -56.5t-104 -19.5t-103.5 19.5t-83.5 56.5q-26 26 -40 55t-20.5 63t-7.5 75.5t-1 92.5t1 92.5t7.5 75.5t20.5 63t40 55q37 37 83.5 56.5t103.5 19.5t104 -19.5t84 -56.5
q26 -26 40 -55t20 -63t7 -75.5t1 -92.5z" />
    <glyph glyph-name="Oacute" unicode="&#xd3;" horiz-adv-x="646" 
d="M348 781h-77l75 162h113zM471 356q0 54 -1.5 89.5t-6 60t-13 41t-21.5 30.5q-19 20 -46.5 32t-59.5 12t-59.5 -12t-46.5 -32q-13 -14 -21.5 -30.5t-13 -41t-6 -60t-1.5 -89.5t1.5 -89.5t6 -60t13 -41t21.5 -30.5q19 -20 46.5 -32t59.5 -12t59.5 12t46.5 32
q13 14 21.5 30.5t13 41t6 60t1.5 89.5zM579 356q0 -51 -1 -92.5t-7 -75.5t-20 -63t-40 -55q-37 -37 -84 -56.5t-104 -19.5t-103.5 19.5t-83.5 56.5q-26 26 -40 55t-20.5 63t-7.5 75.5t-1 92.5t1 92.5t7.5 75.5t20.5 63t40 55q37 37 83.5 56.5t103.5 19.5t104 -19.5t84 -56.5
q26 -26 40 -55t20 -63t7 -75.5t1 -92.5z" />
    <glyph glyph-name="Ocircumflex" unicode="&#xd4;" horiz-adv-x="646" 
d="M410 781l-87 97l-87 -97h-85l129 161h86l129 -161h-85zM471 356q0 54 -1.5 89.5t-6 60t-13 41t-21.5 30.5q-19 20 -46.5 32t-59.5 12t-59.5 -12t-46.5 -32q-13 -14 -21.5 -30.5t-13 -41t-6 -60t-1.5 -89.5t1.5 -89.5t6 -60t13 -41t21.5 -30.5q19 -20 46.5 -32t59.5 -12
t59.5 12t46.5 32q13 14 21.5 30.5t13 41t6 60t1.5 89.5zM579 356q0 -51 -1 -92.5t-7 -75.5t-20 -63t-40 -55q-37 -37 -84 -56.5t-104 -19.5t-103.5 19.5t-83.5 56.5q-26 26 -40 55t-20.5 63t-7.5 75.5t-1 92.5t1 92.5t7.5 75.5t20.5 63t40 55q37 37 83.5 56.5t103.5 19.5
t104 -19.5t84 -56.5q26 -26 40 -55t20 -63t7 -75.5t1 -92.5z" />
    <glyph glyph-name="Otilde" unicode="&#xd5;" horiz-adv-x="646" 
d="M492 849q-34 -34 -57.5 -44.5t-46.5 -10.5q-22 0 -38.5 6t-36.5 17q-14 8 -27.5 13.5t-28.5 5.5q-13 0 -25 -4.5t-33 -25.5l-48 47q34 34 57 44.5t47 10.5q22 0 38.5 -6t36.5 -18q15 -9 27.5 -14t27.5 -5q12 0 25.5 5.5t33.5 25.5l48 -47v0zM471 356q0 54 -1.5 89.5
t-6 60t-13 41t-21.5 30.5q-19 20 -46.5 32t-59.5 12t-59.5 -12t-46.5 -32q-13 -14 -21.5 -30.5t-13 -41t-6 -60t-1.5 -89.5t1.5 -89.5t6 -60t13 -41t21.5 -30.5q19 -20 46.5 -32t59.5 -12t59.5 12t46.5 32q13 14 21.5 30.5t13 41t6 60t1.5 89.5zM579 356q0 -51 -1 -92.5
t-7 -75.5t-20 -63t-40 -55q-37 -37 -84 -56.5t-104 -19.5t-103.5 19.5t-83.5 56.5q-26 26 -40 55t-20.5 63t-7.5 75.5t-1 92.5t1 92.5t7.5 75.5t20.5 63t40 55q37 37 83.5 56.5t103.5 19.5t104 -19.5t84 -56.5q26 -26 40 -55t20 -63t7 -75.5t1 -92.5z" />
    <glyph glyph-name="Odieresis" unicode="&#xd6;" horiz-adv-x="646" 
d="M169 786v108h92v-108h-92zM385 786v108h92v-108h-92zM471 356q0 54 -1.5 89.5t-6 60t-13 41t-21.5 30.5q-19 20 -46.5 32t-59.5 12t-59.5 -12t-46.5 -32q-13 -14 -21.5 -30.5t-13 -41t-6 -60t-1.5 -89.5t1.5 -89.5t6 -60t13 -41t21.5 -30.5q19 -20 46.5 -32t59.5 -12
t59.5 12t46.5 32q13 14 21.5 30.5t13 41t6 60t1.5 89.5zM579 356q0 -51 -1 -92.5t-7 -75.5t-20 -63t-40 -55q-37 -37 -84 -56.5t-104 -19.5t-103.5 19.5t-83.5 56.5q-26 26 -40 55t-20.5 63t-7.5 75.5t-1 92.5t1 92.5t7.5 75.5t20.5 63t40 55q37 37 83.5 56.5t103.5 19.5
t104 -19.5t84 -56.5q26 -26 40 -55t20 -63t7 -75.5t1 -92.5z" />
    <glyph glyph-name="multiply" unicode="&#xd7;" 
d="M412 69l-146 145l-145 -145l-64 63l146 146l-146 146l64 64l145 -146l146 146l64 -64l-146 -146l146 -146z" />
    <glyph glyph-name="Oslash" unicode="&#xd8;" horiz-adv-x="652" 
d="M403 599q-36 22 -80 22q-32 0 -59 -12t-46 -32q-13 -14 -21.5 -30.5t-13 -41t-6 -60t-1.5 -89.5q0 -40 1 -70t3 -52.5t6 -38.5t10 -29l207 433v0zM471 356q0 40 -0.5 69.5t-3 52t-6.5 39t-10 29.5l-207 -433q35 -22 79 -22q32 0 59.5 12t46.5 32q13 14 21.5 30.5t13 41
t6 60t1.5 89.5zM579 356q0 -51 -1 -92.5t-7 -75.5t-20 -63t-40 -55q-37 -37 -84 -56.5t-104 -19.5q-33 0 -63 7t-56 20l-31 -65h-82l51 108l-6 6q-26 26 -40 55t-20.5 63t-7.5 75.5t-1 92.5t1 92.5t7.5 75.5t20.5 63t40 55q37 37 83.5 56.5t103.5 19.5q33 0 63.5 -7
t56.5 -20l30 65h83l-52 -108q2 -2 3.5 -3t3.5 -3q26 -26 40 -55t20 -63t7 -75.5t1 -92.5z" />
    <glyph glyph-name="Ugrave" unicode="&#xd9;" horiz-adv-x="675" 
d="M313 781l-111 162h113l75 -162h-77zM593 240q0 -55 -19.5 -100.5t-54 -77.5t-81.5 -50t-101 -18t-101 18t-81 50t-53.5 77.5t-19.5 100.5v472h108v-467q0 -72 40 -113t107 -41t107.5 41t40.5 113v467h108v-472v0z" />
    <glyph glyph-name="Uacute" unicode="&#xda;" horiz-adv-x="675" 
d="M363 781h-77l75 162h113zM593 240q0 -55 -19.5 -100.5t-54 -77.5t-81.5 -50t-101 -18t-101 18t-81 50t-53.5 77.5t-19.5 100.5v472h108v-467q0 -72 40 -113t107 -41t107.5 41t40.5 113v467h108v-472v0z" />
    <glyph glyph-name="Ucircumflex" unicode="&#xdb;" horiz-adv-x="675" 
d="M425 781l-87 97l-87 -97h-85l129 161h86l129 -161h-85zM593 240q0 -55 -19.5 -100.5t-54 -77.5t-81.5 -50t-101 -18t-101 18t-81 50t-53.5 77.5t-19.5 100.5v472h108v-467q0 -72 40 -113t107 -41t107.5 41t40.5 113v467h108v-472v0z" />
    <glyph glyph-name="Udieresis" unicode="&#xdc;" horiz-adv-x="675" 
d="M400 786v108h92v-108h-92zM184 786v108h92v-108h-92zM593 240q0 -55 -19.5 -100.5t-54 -77.5t-81.5 -50t-101 -18t-101 18t-81 50t-53.5 77.5t-19.5 100.5v472h108v-467q0 -72 40 -113t107 -41t107.5 41t40.5 113v467h108v-472v0z" />
    <glyph glyph-name="Yacute" unicode="&#xdd;" horiz-adv-x="544" 
d="M297 781h-77l75 162h113zM326 293v-293h-108v293l-213 419h118l149 -313l149 313h118z" />
    <glyph glyph-name="Thorn" unicode="&#xde;" horiz-adv-x="637" 
d="M482 359q0 57 -34.5 88t-91.5 31h-155v-237h155q57 0 91.5 30.5t34.5 87.5zM591 359q0 -47 -16 -86t-46 -68t-72 -45t-94 -16h-162v-144h-108v712h108v-137h162q52 0 94 -16.5t72 -45t46 -68.5t16 -86z" />
    <glyph glyph-name="germandbls" unicode="&#xdf;" horiz-adv-x="565" 
d="M501 152q0 -36 -10.5 -65t-30.5 -48q-21 -20 -48 -29.5t-66 -9.5h-53v87h32q19 0 30 4t22 13q21 16 21 57v156q0 36 -18 53q-19 19 -52 19h-35v81h31q32 0 53 19t21 56q0 18 -7 33.5t-18 26.5q-25 24 -81 24q-60 0 -84 -30.5t-24 -82.5v-516h-103v522q0 49 15.5 86t44 62
t68 37t86.5 12q43 0 80.5 -10t65.5 -31t43.5 -53.5t15.5 -76.5q0 -45 -17.5 -72t-44.5 -44q32 -17 47.5 -42t15.5 -73v-165v0z" />
    <glyph glyph-name="agrave" unicode="&#xe0;" horiz-adv-x="530" 
d="M232 599l-111 162h113l75 -162h-77zM352 224h-119q-45 0 -68 -19t-23 -54t22.5 -53.5t70.5 -18.5q29 0 52 4.5t43 24.5q22 22 22 75v41zM354 0v46q-28 -28 -58 -40t-77 -12q-48 0 -80.5 11.5t-55.5 34.5q-40 42 -40 109q0 64 43.5 105t131.5 41h134v36q0 48 -25.5 71.5
t-85.5 23.5q-42 0 -66 -11t-45 -38l-67 63q36 42 77.5 57.5t104.5 15.5q209 0 209 -174v-339h-100z" />
    <glyph glyph-name="aacute" unicode="&#xe1;" horiz-adv-x="530" 
d="M282 599h-77l75 162h113zM352 224h-119q-45 0 -68 -19t-23 -54t22.5 -53.5t70.5 -18.5q29 0 52 4.5t43 24.5q22 22 22 75v41zM354 0v46q-28 -28 -58 -40t-77 -12q-48 0 -80.5 11.5t-55.5 34.5q-40 42 -40 109q0 64 43.5 105t131.5 41h134v36q0 48 -25.5 71.5t-85.5 23.5
q-42 0 -66 -11t-45 -38l-67 63q36 42 77.5 57.5t104.5 15.5q209 0 209 -174v-339h-100z" />
    <glyph glyph-name="acircumflex" unicode="&#xe2;" horiz-adv-x="530" 
d="M344 599l-87 97l-87 -97h-85l129 161h86l129 -161h-85zM352 224h-119q-45 0 -68 -19t-23 -54t22.5 -53.5t70.5 -18.5q29 0 52 4.5t43 24.5q22 22 22 75v41zM354 0v46q-28 -28 -58 -40t-77 -12q-48 0 -80.5 11.5t-55.5 34.5q-40 42 -40 109q0 64 43.5 105t131.5 41h134v36
q0 48 -25.5 71.5t-85.5 23.5q-42 0 -66 -11t-45 -38l-67 63q36 42 77.5 57.5t104.5 15.5q209 0 209 -174v-339h-100z" />
    <glyph glyph-name="atilde" unicode="&#xe3;" horiz-adv-x="530" 
d="M426 667q-34 -34 -57.5 -44.5t-46.5 -10.5q-22 0 -38.5 6t-36.5 17q-14 8 -27.5 13.5t-28.5 5.5q-13 0 -25 -4.5t-33 -25.5l-48 47q34 34 57 44.5t47 10.5q22 0 38.5 -6t36.5 -18q15 -9 27.5 -14t27.5 -5q12 0 25.5 5.5t33.5 25.5l48 -47v0zM352 224h-119q-45 0 -68 -19
t-23 -54t22.5 -53.5t70.5 -18.5q29 0 52 4.5t43 24.5q22 22 22 75v41zM354 0v46q-28 -28 -58 -40t-77 -12q-48 0 -80.5 11.5t-55.5 34.5q-40 42 -40 109q0 64 43.5 105t131.5 41h134v36q0 48 -25.5 71.5t-85.5 23.5q-42 0 -66 -11t-45 -38l-67 63q36 42 77.5 57.5
t104.5 15.5q209 0 209 -174v-339h-100z" />
    <glyph glyph-name="adieresis" unicode="&#xe4;" horiz-adv-x="530" 
d="M103 604v108h92v-108h-92zM319 604v108h92v-108h-92zM352 224h-119q-45 0 -68 -19t-23 -54t22.5 -53.5t70.5 -18.5q29 0 52 4.5t43 24.5q22 22 22 75v41zM354 0v46q-28 -28 -58 -40t-77 -12q-48 0 -80.5 11.5t-55.5 34.5q-40 42 -40 109q0 64 43.5 105t131.5 41h134v36
q0 48 -25.5 71.5t-85.5 23.5q-42 0 -66 -11t-45 -38l-67 63q36 42 77.5 57.5t104.5 15.5q209 0 209 -174v-339h-100z" />
    <glyph glyph-name="aring" unicode="&#xe5;" horiz-adv-x="530" 
d="M321 701q0 26 -19 44.5t-45 18.5t-45 -18.5t-19 -44.5t19 -44.5t45 -18.5t45 18.5t19 44.5zM352 224h-119q-45 0 -68 -19t-23 -54t22.5 -53.5t70.5 -18.5q29 0 52 4.5t43 24.5q22 22 22 75v41zM382 701q0 -26 -10 -48.5t-27 -39.5t-39.5 -27t-48.5 -10t-48.5 10t-39.5 27
t-27 39.5t-10 48.5t10 48.5t27 39.5t39.5 27t48.5 10t48.5 -10t39.5 -27t27 -39.5t10 -48.5zM354 0v46q-28 -28 -58 -40t-77 -12q-48 0 -80.5 11.5t-55.5 34.5q-40 42 -40 109q0 64 43.5 105t131.5 41h134v36q0 48 -25.5 71.5t-85.5 23.5q-42 0 -66 -11t-45 -38l-67 63
q36 42 77.5 57.5t104.5 15.5q209 0 209 -174v-339h-100z" />
    <glyph glyph-name="ae" unicode="&#xe6;" horiz-adv-x="837" 
d="M681 295q-1 23 -3 37.5t-10 31.5q-12 29 -38.5 46.5t-62.5 17.5t-62 -17.5t-38 -46.5q-8 -17 -10.5 -31.5t-3.5 -37.5h228v0zM352 224h-119q-45 0 -68 -19t-23 -54t22.5 -53.5t70.5 -18.5q29 0 52 4.5t43 24.5q22 22 22 75v41zM453 224q0 -66 33 -104t96 -38
q43 0 69.5 12.5t53.5 39.5l65 -61q-20 -20 -39.5 -34.5t-42 -24.5t-49 -15t-59.5 -5q-56 0 -102 18.5t-77 60.5q-38 -47 -80.5 -63t-101.5 -16q-48 0 -80.5 11.5t-55.5 34.5q-20 20 -30 48.5t-10 60.5q0 64 43.5 105t131.5 41h134v36q0 48 -25.5 71.5t-85.5 23.5
q-42 0 -66 -11t-45 -38l-67 63q36 42 77.5 57.5t104.5 15.5q125 0 172 -67q55 67 150 67q51 0 91 -18t67.5 -50t42 -77t14.5 -99v-45h-329z" />
    <glyph glyph-name="ccedilla" unicode="&#xe7;" horiz-adv-x="485" 
d="M268 -211h-101l70 147h82zM448 66q-36 -38 -75 -55t-92 -17q-43 0 -83.5 14t-72 45t-51 80.5t-19.5 120.5t19.5 120.5t51 80t72 44.5t83.5 14q53 0 92 -16.5t75 -54.5l-70 -68q-24 26 -45.5 37t-51.5 11q-60 0 -94 -45q-17 -21 -23.5 -49.5t-6.5 -73.5t6.5 -74t23.5 -50
q34 -45 94 -45q30 0 51.5 11t45.5 37l70 -67v0z" />
    <glyph glyph-name="egrave" unicode="&#xe8;" horiz-adv-x="539" 
d="M248 599l-111 162h113l75 -162h-77zM384 295q-1 23 -3.5 37.5t-10.5 31.5q-12 29 -38 46.5t-62 17.5t-62.5 -17.5t-38.5 -46.5q-8 -17 -10 -31.5t-3 -37.5h228v0zM156 224q0 -66 33 -104t96 -38q43 0 69.5 12.5t53.5 39.5l65 -61q-20 -20 -39.5 -34.5t-42 -24.5t-49 -15
t-59.5 -5q-48 0 -89.5 13.5t-72 44t-48.5 80.5t-18 122q0 124 58.5 191.5t156.5 67.5q51 0 91 -18t67.5 -50t42 -77t14.5 -99v-45h-329z" />
    <glyph glyph-name="eacute" unicode="&#xe9;" horiz-adv-x="539" 
d="M298 599h-77l75 162h113zM384 295q-1 23 -3.5 37.5t-10.5 31.5q-12 29 -38 46.5t-62 17.5t-62.5 -17.5t-38.5 -46.5q-8 -17 -10 -31.5t-3 -37.5h228v0zM156 224q0 -66 33 -104t96 -38q43 0 69.5 12.5t53.5 39.5l65 -61q-20 -20 -39.5 -34.5t-42 -24.5t-49 -15t-59.5 -5
q-48 0 -89.5 13.5t-72 44t-48.5 80.5t-18 122q0 124 58.5 191.5t156.5 67.5q51 0 91 -18t67.5 -50t42 -77t14.5 -99v-45h-329z" />
    <glyph glyph-name="ecircumflex" unicode="&#xea;" horiz-adv-x="539" 
d="M384 295q-1 23 -3.5 37.5t-10.5 31.5q-12 29 -38 46.5t-62 17.5t-62.5 -17.5t-38.5 -46.5q-8 -17 -10 -31.5t-3 -37.5h228v0zM360 599l-87 97l-87 -97h-85l129 161h86l129 -161h-85zM156 224q0 -66 33 -104t96 -38q43 0 69.5 12.5t53.5 39.5l65 -61q-20 -20 -39.5 -34.5
t-42 -24.5t-49 -15t-59.5 -5q-48 0 -89.5 13.5t-72 44t-48.5 80.5t-18 122q0 124 58.5 191.5t156.5 67.5q51 0 91 -18t67.5 -50t42 -77t14.5 -99v-45h-329z" />
    <glyph glyph-name="edieresis" unicode="&#xeb;" horiz-adv-x="539" 
d="M119 604v108h92v-108h-92zM335 604v108h92v-108h-92zM384 295q-1 23 -3.5 37.5t-10.5 31.5q-12 29 -38 46.5t-62 17.5t-62.5 -17.5t-38.5 -46.5q-8 -17 -10 -31.5t-3 -37.5h228v0zM156 224q0 -66 33 -104t96 -38q43 0 69.5 12.5t53.5 39.5l65 -61q-20 -20 -39.5 -34.5
t-42 -24.5t-49 -15t-59.5 -5q-48 0 -89.5 13.5t-72 44t-48.5 80.5t-18 122q0 124 58.5 191.5t156.5 67.5q51 0 91 -18t67.5 -50t42 -77t14.5 -99v-45h-329z" />
    <glyph glyph-name="igrave" unicode="&#xec;" horiz-adv-x="264" 
d="M98 599l-111 162h113l75 -162h-77zM81 0v507h102v-507h-102z" />
    <glyph glyph-name="iacute" unicode="&#xed;" horiz-adv-x="264" 
d="M158 599h-77l75 162h113zM81 0v507h102v-507h-102z" />
    <glyph glyph-name="icircumflex" unicode="&#xee;" horiz-adv-x="264" 
d="M222 599l-87 97l-87 -97h-85l129 161h86l129 -161h-85zM81 0v507h102v-507h-102z" />
    <glyph glyph-name="idieresis" unicode="&#xef;" horiz-adv-x="264" 
d="M195 604v108h92v-108h-92zM-21 604v108h92v-108h-92zM81 0v507h102v-507h-102z" />
    <glyph glyph-name="ntilde" unicode="&#xf1;" horiz-adv-x="568" 
d="M456 667q-34 -34 -57.5 -44.5t-46.5 -10.5q-22 0 -38.5 6t-36.5 17q-14 8 -27.5 13.5t-28.5 5.5q-13 0 -25 -4.5t-33 -25.5l-48 47q34 34 57 44.5t47 10.5q22 0 38.5 -6t36.5 -18q15 -9 27.5 -14t27.5 -5q12 0 25.5 5.5t33.5 25.5l48 -47v0zM390 0v309q0 59 -29.5 86
t-72.5 27t-74 -27.5t-31 -85.5v-309h-102v507h100v-51q26 29 61.5 43t73.5 14q39 0 70.5 -12t54.5 -34q29 -29 40 -64.5t11 -78.5v-324h-102z" />
    <glyph glyph-name="ograve" unicode="&#xf2;" horiz-adv-x="537" 
d="M236 599l-111 162h113l75 -162h-77zM378 254q0 42 -6 79t-29 60q-29 29 -75 29q-45 0 -74 -29q-23 -23 -29 -60t-6 -79t6 -79t29 -60q30 -30 74 -30q45 0 75 30q23 23 29 60t6 79zM480 254q0 -65 -12 -113.5t-48 -86.5q-25 -26 -62.5 -43t-89.5 -17t-89 17t-62 43
q-36 38 -48 86.5t-12 113.5q0 64 12 112.5t48 86.5q25 26 62 43t89 17t89.5 -17t62.5 -43q36 -38 48 -86.5t12 -112.5z" />
    <glyph glyph-name="oacute" unicode="&#xf3;" horiz-adv-x="537" 
d="M293 599h-77l75 162h113zM378 254q0 42 -6 79t-29 60q-29 29 -75 29q-45 0 -74 -29q-23 -23 -29 -60t-6 -79t6 -79t29 -60q30 -30 74 -30q45 0 75 30q23 23 29 60t6 79zM480 254q0 -65 -12 -113.5t-48 -86.5q-25 -26 -62.5 -43t-89.5 -17t-89 17t-62 43q-36 38 -48 86.5
t-12 113.5q0 64 12 112.5t48 86.5q25 26 62 43t89 17t89.5 -17t62.5 -43q36 -38 48 -86.5t12 -112.5z" />
    <glyph glyph-name="ocircumflex" unicode="&#xf4;" horiz-adv-x="537" 
d="M355 599l-87 97l-87 -97h-85l129 161h86l129 -161h-85zM378 254q0 42 -6 79t-29 60q-29 29 -75 29q-45 0 -74 -29q-23 -23 -29 -60t-6 -79t6 -79t29 -60q30 -30 74 -30q45 0 75 30q23 23 29 60t6 79zM480 254q0 -65 -12 -113.5t-48 -86.5q-25 -26 -62.5 -43t-89.5 -17
t-89 17t-62 43q-36 38 -48 86.5t-12 113.5q0 64 12 112.5t48 86.5q25 26 62 43t89 17t89.5 -17t62.5 -43q36 -38 48 -86.5t12 -112.5z" />
    <glyph glyph-name="otilde" unicode="&#xf5;" horiz-adv-x="537" 
d="M437 667q-34 -34 -57.5 -44.5t-46.5 -10.5q-22 0 -38.5 6t-36.5 17q-14 8 -27.5 13.5t-28.5 5.5q-13 0 -25 -4.5t-33 -25.5l-48 47q34 34 57 44.5t47 10.5q22 0 38.5 -6t36.5 -18q15 -9 27.5 -14t27.5 -5q12 0 25.5 5.5t33.5 25.5l48 -47v0zM378 254q0 42 -6 79t-29 60
q-29 29 -75 29q-45 0 -74 -29q-23 -23 -29 -60t-6 -79t6 -79t29 -60q30 -30 74 -30q45 0 75 30q23 23 29 60t6 79zM480 254q0 -65 -12 -113.5t-48 -86.5q-25 -26 -62.5 -43t-89.5 -17t-89 17t-62 43q-36 38 -48 86.5t-12 113.5q0 64 12 112.5t48 86.5q25 26 62 43t89 17
t89.5 -17t62.5 -43q36 -38 48 -86.5t12 -112.5z" />
    <glyph glyph-name="odieresis" unicode="&#xf6;" horiz-adv-x="537" 
d="M114 604v108h92v-108h-92zM330 604v108h92v-108h-92zM378 254q0 42 -6 79t-29 60q-29 29 -75 29q-45 0 -74 -29q-23 -23 -29 -60t-6 -79t6 -79t29 -60q30 -30 74 -30q45 0 75 30q23 23 29 60t6 79zM480 254q0 -65 -12 -113.5t-48 -86.5q-25 -26 -62.5 -43t-89.5 -17
t-89 17t-62 43q-36 38 -48 86.5t-12 113.5q0 64 12 112.5t48 86.5q25 26 62 43t89 17t89.5 -17t62.5 -43q36 -38 48 -86.5t12 -112.5z" />
    <glyph glyph-name="divide" unicode="&#xf7;" 
d="M212 414v109h109v-109h-109zM212 33v109h109v-109h-109zM48 230v95h436v-95h-436z" />
    <glyph glyph-name="oslash" unicode="&#xf8;" horiz-adv-x="537" 
d="M328 405q-26 17 -60 17q-45 0 -74 -29q-23 -23 -29 -60t-6 -79q0 -30 2.5 -58t12.5 -51l154 260v0zM378 254q0 30 -2.5 58t-12.5 51l-154 -260q26 -18 59 -18q45 0 75 30q23 23 29 60t6 79zM480 254q0 -65 -12 -113.5t-48 -86.5q-25 -26 -62.5 -43t-89.5 -17
q-32 0 -57.5 7t-46.5 18l-37 -63h-69l58 99q-36 38 -47.5 86.5t-11.5 112.5t12 112.5t48 86.5q25 26 62 43t89 17q32 0 58 -7t47 -18l37 63h69l-59 -98q36 -38 48 -86.5t12 -112.5z" />
    <glyph glyph-name="ugrave" unicode="&#xf9;" horiz-adv-x="568" 
d="M256 599l-111 162h113l75 -162h-77zM387 0v51q-26 -29 -61.5 -43t-73.5 -14q-39 0 -70.5 12t-54.5 34q-29 29 -40 64.5t-11 78.5v324h102v-309q0 -59 29.5 -86t72.5 -27q21 0 40.5 6.5t33.5 20.5t22.5 35.5t8.5 50.5v309h102v-507h-100z" />
    <glyph glyph-name="uacute" unicode="&#xfa;" horiz-adv-x="568" 
d="M306 599h-77l75 162h113zM387 0v51q-26 -29 -61.5 -43t-73.5 -14q-39 0 -70.5 12t-54.5 34q-29 29 -40 64.5t-11 78.5v324h102v-309q0 -59 29.5 -86t72.5 -27q21 0 40.5 6.5t33.5 20.5t22.5 35.5t8.5 50.5v309h102v-507h-100z" />
    <glyph glyph-name="ucircumflex" unicode="&#xfb;" horiz-adv-x="568" 
d="M368 599l-87 97l-87 -97h-85l129 161h86l129 -161h-85zM387 0v51q-26 -29 -61.5 -43t-73.5 -14q-39 0 -70.5 12t-54.5 34q-29 29 -40 64.5t-11 78.5v324h102v-309q0 -59 29.5 -86t72.5 -27q21 0 40.5 6.5t33.5 20.5t22.5 35.5t8.5 50.5v309h102v-507h-100z" />
    <glyph glyph-name="udieresis" unicode="&#xfc;" horiz-adv-x="568" 
d="M343 604v108h92v-108h-92zM127 604v108h92v-108h-92zM387 0v51q-26 -29 -61.5 -43t-73.5 -14q-39 0 -70.5 12t-54.5 34q-29 29 -40 64.5t-11 78.5v324h102v-309q0 -59 29.5 -86t72.5 -27q21 0 40.5 6.5t33.5 20.5t22.5 35.5t8.5 50.5v309h102v-507h-100z" />
    <glyph glyph-name="yacute" unicode="&#xfd;" horiz-adv-x="468" 
d="M259 599h-77l75 162h113zM240 -101q-14 -40 -37 -63q-21 -21 -48 -29t-56 -8h-41v92h26q32 0 47 11.5t26 42.5l28 79l-177 483h108l121 -357l118 357h109z" />
    <glyph glyph-name="thorn" unicode="&#xfe;" horiz-adv-x="554" 
d="M394 254q0 34 -3.5 64.5t-14.5 53.5t-32 36.5t-55 13.5q-35 0 -55.5 -13.5t-32 -36.5t-15 -53.5t-3.5 -64.5t3.5 -64.5t15 -54t32 -37t55.5 -13.5q34 0 55 13.5t32 37t14.5 54t3.5 64.5zM496 254q0 -29 -1.5 -59t-7.5 -58.5t-17.5 -53.5t-30.5 -44q-21 -21 -53 -33
t-70 -12q-41 0 -73 12.5t-60 45.5v-257h-102v917h102v-256q28 33 60 45t73 12q38 0 70 -12t53 -33q19 -19 30.5 -44t17.5 -53t7.5 -58t1.5 -59z" />
    <glyph glyph-name="ydieresis" unicode="&#xff;" horiz-adv-x="468" 
d="M296 604v108h92v-108h-92zM80 604v108h92v-108h-92zM240 -101q-14 -40 -37 -63q-21 -21 -48 -29t-56 -8h-41v92h26q32 0 47 11.5t26 42.5l28 79l-177 483h108l121 -357l118 357h109z" />
    <glyph glyph-name="eth" unicode="&#xf0;" horiz-adv-x="537" 
d="M374 249q0 40 -5 76t-28 59q-14 14 -32.5 21.5t-40.5 7.5q-43 0 -72 -29q-23 -23 -28 -59t-5 -76t5 -76t28 -59q29 -29 72 -29q22 0 40.5 7.5t32.5 21.5q23 23 28 59t5 76zM476 249q0 -63 -11.5 -111t-47.5 -85q-24 -26 -61 -42.5t-88 -16.5t-87.5 16.5t-60.5 42.5
q-36 37 -47.5 85t-11.5 111t11.5 111t47.5 85q39 40 104 51q18 3 38 3t38 -5l-45 81h-116v72h78l-39 70h108l39 -70h87v-72h-50l51 -94q19 -35 31.5 -62.5t19.5 -53.5t9.5 -53.5t2.5 -62.5z" />
    <glyph glyph-name="Lslash" unicode="&#x141;" horiz-adv-x="587" 
d="M107 0v266l-69 -44v93l69 43v354h108v-286l141 89v-91l-141 -89v-238h342v-97h-450z" />
    <glyph glyph-name="lslash" unicode="&#x142;" horiz-adv-x="326" 
d="M231 0q-36 0 -62.5 11.5t-43.5 30.5t-25 44.5t-8 53.5v181l-59 -36v87l59 36v304h102v-242l70 43v-86l-70 -44v-237q0 -29 12 -44t43 -15h45v-87h-63z" />
    <glyph glyph-name="minus" unicode="&#x2212;" 
d="M51 230v95h431v-95h-431z" />
    <glyph glyph-name="fraction" unicode="&#x2215;" horiz-adv-x="197" 
d="M-28 0h-82l335 712h82z" />
    <glyph glyph-name="fi" unicode="&#xfb01;" horiz-adv-x="583" 
d="M396 624v91h109v-91h-109zM399 0v498h102v-498h-102zM197 420v-420h-102v420h-58v78h58v78q0 27 8.5 52.5t25.5 45t43 31.5t62 12h63v-87h-45q-29 0 -42 -15.5t-13 -43.5v-73h100v-78h-100z" />
    <glyph glyph-name="fl" unicode="&#xfb02;" horiz-adv-x="626" 
d="M536 0q-36 0 -62.5 11.5t-43.5 30.5t-25 44.5t-8 53.5v572h102v-566q0 -29 12 -44t43 -15h45v-87h-63zM197 420v-420h-102v420h-58v78h58v78q0 27 8.5 52.5t25.5 45t43 31.5t62 12h63v-87h-45q-29 0 -42 -15.5t-13 -43.5v-73h100v-78h-100z" />
    <glyph glyph-name="dotlessi" unicode="&#x131;" horiz-adv-x="264" 
d="M81 0v507h102v-507h-102z" />
    <glyph glyph-name="breve" unicode="&#x2d8;" horiz-adv-x="500" 
d="M415 735q-5 -75 -49 -110t-115 -35t-116 35t-50 110h74q5 -35 30 -53t62 -18t62 18t30 53h72v0z" />
    <glyph glyph-name="dotaccent" unicode="&#x2d9;" horiz-adv-x="500" 
d="M196 620v91h108v-91h-108z" />
    <glyph glyph-name="ring" unicode="&#x2da;" horiz-adv-x="500" 
d="M314 701q0 26 -19 44.5t-45 18.5t-45 -18.5t-19 -44.5t19 -44.5t45 -18.5t45 18.5t19 44.5zM375 701q0 -26 -10 -48.5t-27 -39.5t-39.5 -27t-48.5 -10t-48.5 10t-39.5 27t-27 39.5t-10 48.5t10 48.5t27 39.5t39.5 27t48.5 10t48.5 -10t39.5 -27t27 -39.5t10 -48.5z" />
    <glyph glyph-name="hungarumlaut" unicode="&#x2dd;" horiz-adv-x="500" 
d="M344 599h-76l76 162h112zM160 599h-77l75 162h113z" />
    <glyph glyph-name="ogonek" unicode="&#x2db;" horiz-adv-x="500" 
d="M228 -211l-51 147h82l70 -147h-101z" />
    <glyph glyph-name="caron" unicode="&#x2c7;" horiz-adv-x="500" 
d="M293 599h-86l-129 161h85l87 -97l87 97h85z" />
    </font>
</defs>
</svg>
